%TF.GenerationSoftware,KiCad,Pcbnew,10.0.4*%
%TF.CreationDate,2026-08-19T12:37:49-04:00*%
%TF.ProjectId,driver_board,64726976-6572-45f6-926f-6172642e6b69,rev?*%
%TF.SameCoordinates,Original*%
%TF.FileFunction,Soldermask,Bot*%
%TF.FilePolarity,Negative*%
%FSLAX46Y46*%
G04 Gerber Fmt 4.6, Leading zero omitted, Abs format (unit mm)*
G04 Created by KiCad (PCBNEW 10.0.4) date 2026-08-19 12:37:49*
%MOMM*%
%LPD*%
G01*
G04 APERTURE LIST*
G04 Aperture macros list*
%AMRoundRect*
0 Rectangle with rounded corners*
0 $1 Rounding radius*
0 $2 $3 $4 $5 $6 $7 $8 $9 X,Y pos of 4 corners*
0 Add a 4 corners polygon primitive as box body*
4,1,4,$2,$3,$4,$5,$6,$7,$8,$9,$2,$3,0*
0 Add four circle primitives for the rounded corners*
1,1,$1+$1,$2,$3*
1,1,$1+$1,$4,$5*
1,1,$1+$1,$6,$7*
1,1,$1+$1,$8,$9*
0 Add four rect primitives between the rounded corners*
20,1,$1+$1,$2,$3,$4,$5,0*
20,1,$1+$1,$4,$5,$6,$7,0*
20,1,$1+$1,$6,$7,$8,$9,0*
20,1,$1+$1,$8,$9,$2,$3,0*%
G04 Aperture macros list end*
%ADD10C,1.700000*%
%ADD11R,1.700000X1.700000*%
%ADD12R,1.300000X0.300000*%
%ADD13R,2.200000X1.800000*%
%ADD14C,3.200000*%
%ADD15RoundRect,0.225000X-0.250000X0.225000X-0.250000X-0.225000X0.250000X-0.225000X0.250000X0.225000X0*%
G04 APERTURE END LIST*
D10*
%TO.C,J1*%
X109250000Y-90110000D03*
X111790000Y-90110000D03*
X109250000Y-87570000D03*
X111790000Y-87570000D03*
X109250000Y-85030000D03*
X111790000Y-85030000D03*
X109250000Y-82490000D03*
X111790000Y-82490000D03*
X109250000Y-79950000D03*
X111790000Y-79950000D03*
X109250000Y-77410000D03*
X111790000Y-77410000D03*
X109250000Y-74870000D03*
X111790000Y-74870000D03*
X109250000Y-72330000D03*
X111790000Y-72330000D03*
X109250000Y-69790000D03*
X111790000Y-69790000D03*
X109250000Y-67250000D03*
D11*
X111790000Y-67250000D03*
%TD*%
D12*
%TO.C,J3*%
X128450000Y-82250000D03*
X128450000Y-82750000D03*
X128450000Y-83250000D03*
X128450000Y-83750000D03*
X128450000Y-84250000D03*
X128450000Y-84750000D03*
X128450000Y-85250000D03*
X128450000Y-85750000D03*
X128450000Y-86250000D03*
X128450000Y-86750000D03*
X128450000Y-87250000D03*
X128450000Y-87750000D03*
D13*
X131700000Y-80350000D03*
X131700000Y-89650000D03*
%TD*%
D14*
%TO.C,REF\u002A\u002A*%
X132000000Y-95800000D03*
%TD*%
%TO.C,REF\u002A\u002A*%
X108000000Y-95700000D03*
%TD*%
%TO.C,REF\u002A\u002A*%
X132000000Y-61800000D03*
%TD*%
%TO.C,REF\u002A\u002A*%
X108000000Y-61700000D03*
%TD*%
D13*
%TO.C,J2*%
X131750000Y-77150000D03*
X131750000Y-67850000D03*
D12*
X128500000Y-75250000D03*
X128500000Y-74750000D03*
X128500000Y-74250000D03*
X128500000Y-73750000D03*
X128500000Y-73250000D03*
X128500000Y-72750000D03*
X128500000Y-72250000D03*
X128500000Y-71750000D03*
X128500000Y-71250000D03*
X128500000Y-70750000D03*
X128500000Y-70250000D03*
X128500000Y-69750000D03*
%TD*%
D15*
%TO.C,C4*%
X126250000Y-84025000D03*
X126250000Y-82475000D03*
%TD*%
%TO.C,C3*%
X126250000Y-71525000D03*
X126250000Y-69975000D03*
%TD*%
M02*
