M48
; DRILL file KiCad 10.0.4 date 2026-08-19T12:37:32
; FORMAT={-:-/ absolute / metric / decimal}
; #@! TF.CreationDate,2026-08-19T12:37:32-04:00
; #@! TF.GenerationSoftware,Kicad,Pcbnew,10.0.4
; #@! TF.FileFunction,Plated,1,2,PTH
FMAT,2
METRIC
; #@! TA.AperFunction,Plated,PTH,ViaDrill
T1C0.300
; #@! TA.AperFunction,Plated,PTH,ComponentDrill
T2C1.000
%
G90
G05
T1
X115.1Y-90.25
X115.25Y-68.025
X115.25Y-69.8
X118.4Y-74.75
X118.4Y-77.5
X118.4Y-80.0
X118.4Y-82.48
X118.684Y-83.316
X119.434Y-84.066
X119.5Y-85.0
X120.0Y-74.75
X120.0Y-77.5
X120.0Y-81.0
X120.0Y-82.125
X120.075Y-90.25
X120.5Y-82.75
X121.812Y-89.7
X122.647Y-86.603
X122.75Y-84.0
X123.25Y-81.25
X123.5Y-80.25
X123.75Y-74.75
X124.15Y-84.75
X124.487Y-87.25
X124.5Y-68.7
X125.25Y-68.7
X126.0Y-68.7
X126.174Y-77.424
X126.398Y-87.611
X126.57Y-86.83
X126.75Y-68.7
X126.75Y-72.75
X126.75Y-73.55
X126.75Y-74.35
X126.75Y-75.15
X126.75Y-76.0
X126.75Y-85.25
X126.75Y-86.05
X126.75Y-88.9
X127.369Y-69.463
X129.75Y-83.0
X130.0Y-83.75
T2
X109.25Y-67.25
X109.25Y-69.79
X109.25Y-72.33
X109.25Y-74.87
X109.25Y-77.41
X109.25Y-79.95
X109.25Y-82.49
X109.25Y-85.03
X109.25Y-87.57
X109.25Y-90.11
X111.79Y-67.25
X111.79Y-69.79
X111.79Y-72.33
X111.79Y-74.87
X111.79Y-77.41
X111.79Y-79.95
X111.79Y-82.49
X111.79Y-85.03
X111.79Y-87.57
X111.79Y-90.11
M30
