%TF.GenerationSoftware,KiCad,Pcbnew,10.0.4*%
%TF.CreationDate,2026-08-19T12:37:49-04:00*%
%TF.ProjectId,driver_board,64726976-6572-45f6-926f-6172642e6b69,rev?*%
%TF.SameCoordinates,Original*%
%TF.FileFunction,Soldermask,Top*%
%TF.FilePolarity,Negative*%
%FSLAX46Y46*%
G04 Gerber Fmt 4.6, Leading zero omitted, Abs format (unit mm)*
G04 Created by KiCad (PCBNEW 10.0.4) date 2026-08-19 12:37:49*
%MOMM*%
%LPD*%
G01*
G04 APERTURE LIST*
G04 Aperture macros list*
%AMRoundRect*
0 Rectangle with rounded corners*
0 $1 Rounding radius*
0 $2 $3 $4 $5 $6 $7 $8 $9 X,Y pos of 4 corners*
0 Add a 4 corners polygon primitive as box body*
4,1,4,$2,$3,$4,$5,$6,$7,$8,$9,$2,$3,0*
0 Add four circle primitives for the rounded corners*
1,1,$1+$1,$2,$3*
1,1,$1+$1,$4,$5*
1,1,$1+$1,$6,$7*
1,1,$1+$1,$8,$9*
0 Add four rect primitives between the rounded corners*
20,1,$1+$1,$2,$3,$4,$5,0*
20,1,$1+$1,$4,$5,$6,$7,0*
20,1,$1+$1,$6,$7,$8,$9,0*
20,1,$1+$1,$8,$9,$2,$3,0*%
G04 Aperture macros list end*
%ADD10C,1.700000*%
%ADD11R,1.700000X1.700000*%
%ADD12C,3.200000*%
%ADD13RoundRect,0.200000X0.200000X0.275000X-0.200000X0.275000X-0.200000X-0.275000X0.200000X-0.275000X0*%
%ADD14RoundRect,0.200000X-0.200000X-0.275000X0.200000X-0.275000X0.200000X0.275000X-0.200000X0.275000X0*%
%ADD15RoundRect,0.200000X-0.275000X0.200000X-0.275000X-0.200000X0.275000X-0.200000X0.275000X0.200000X0*%
%ADD16RoundRect,0.250000X0.475000X-0.250000X0.475000X0.250000X-0.475000X0.250000X-0.475000X-0.250000X0*%
%ADD17RoundRect,0.225000X-0.250000X0.225000X-0.250000X-0.225000X0.250000X-0.225000X0.250000X0.225000X0*%
%ADD18RoundRect,0.150000X-0.587500X-0.150000X0.587500X-0.150000X0.587500X0.150000X-0.587500X0.150000X0*%
G04 APERTURE END LIST*
D10*
%TO.C,J1*%
X109250000Y-90110000D03*
X111790000Y-90110000D03*
X109250000Y-87570000D03*
X111790000Y-87570000D03*
X109250000Y-85030000D03*
X111790000Y-85030000D03*
X109250000Y-82490000D03*
X111790000Y-82490000D03*
X109250000Y-79950000D03*
X111790000Y-79950000D03*
X109250000Y-77410000D03*
X111790000Y-77410000D03*
X109250000Y-74870000D03*
X111790000Y-74870000D03*
X109250000Y-72330000D03*
X111790000Y-72330000D03*
X109250000Y-69790000D03*
X111790000Y-69790000D03*
X109250000Y-67250000D03*
D11*
X111790000Y-67250000D03*
%TD*%
D12*
%TO.C,REF\u002A\u002A*%
X132000000Y-95800000D03*
%TD*%
%TO.C,REF\u002A\u002A*%
X108000000Y-95700000D03*
%TD*%
%TO.C,REF\u002A\u002A*%
X132000000Y-61800000D03*
%TD*%
%TO.C,REF\u002A\u002A*%
X108000000Y-61700000D03*
%TD*%
D13*
%TO.C,R6*%
X116750000Y-87500000D03*
X115100000Y-87500000D03*
%TD*%
%TO.C,R5*%
X115100000Y-85000000D03*
X116750000Y-85000000D03*
%TD*%
%TO.C,R4*%
X115100000Y-82500000D03*
X116750000Y-82500000D03*
%TD*%
%TO.C,R3*%
X115100000Y-80000000D03*
X116750000Y-80000000D03*
%TD*%
%TO.C,R2*%
X115100000Y-77500000D03*
X116750000Y-77500000D03*
%TD*%
%TO.C,R1*%
X116750000Y-74750000D03*
X115100000Y-74750000D03*
%TD*%
D14*
%TO.C,R9*%
X118425000Y-90250000D03*
X120075000Y-90250000D03*
%TD*%
D13*
%TO.C,R12*%
X122825000Y-82500000D03*
X121175000Y-82500000D03*
%TD*%
%TO.C,R7*%
X116750000Y-90250000D03*
X115100000Y-90250000D03*
%TD*%
D14*
%TO.C,R8*%
X118175000Y-87500000D03*
X119825000Y-87500000D03*
%TD*%
D15*
%TO.C,R11*%
X122750000Y-83925000D03*
X122750000Y-85575000D03*
%TD*%
D16*
%TO.C,C1*%
X115250000Y-71700000D03*
X115250000Y-69800000D03*
%TD*%
D17*
%TO.C,C2*%
X115250000Y-66475000D03*
X115250000Y-68025000D03*
%TD*%
D18*
%TO.C,Q1*%
X121812500Y-87800000D03*
X121812500Y-89700000D03*
X123687500Y-88750000D03*
%TD*%
D15*
%TO.C,R10*%
X121250000Y-83925000D03*
X121250000Y-85575000D03*
%TD*%
M02*
