%TF.GenerationSoftware,KiCad,Pcbnew,10.0.4*%
%TF.CreationDate,2026-08-19T12:37:49-04:00*%
%TF.ProjectId,driver_board,64726976-6572-45f6-926f-6172642e6b69,rev?*%
%TF.SameCoordinates,Original*%
%TF.FileFunction,Copper,L2,Bot*%
%TF.FilePolarity,Positive*%
%FSLAX46Y46*%
G04 Gerber Fmt 4.6, Leading zero omitted, Abs format (unit mm)*
G04 Created by KiCad (PCBNEW 10.0.4) date 2026-08-19 12:37:49*
%MOMM*%
%LPD*%
G01*
G04 APERTURE LIST*
G04 Aperture macros list*
%AMRoundRect*
0 Rectangle with rounded corners*
0 $1 Rounding radius*
0 $2 $3 $4 $5 $6 $7 $8 $9 X,Y pos of 4 corners*
0 Add a 4 corners polygon primitive as box body*
4,1,4,$2,$3,$4,$5,$6,$7,$8,$9,$2,$3,0*
0 Add four circle primitives for the rounded corners*
1,1,$1+$1,$2,$3*
1,1,$1+$1,$4,$5*
1,1,$1+$1,$6,$7*
1,1,$1+$1,$8,$9*
0 Add four rect primitives between the rounded corners*
20,1,$1+$1,$2,$3,$4,$5,0*
20,1,$1+$1,$4,$5,$6,$7,0*
20,1,$1+$1,$6,$7,$8,$9,0*
20,1,$1+$1,$8,$9,$2,$3,0*%
G04 Aperture macros list end*
%TA.AperFunction,ComponentPad*%
%ADD10C,1.700000*%
%TD*%
%TA.AperFunction,ComponentPad*%
%ADD11R,1.700000X1.700000*%
%TD*%
%TA.AperFunction,SMDPad,CuDef*%
%ADD12R,1.300000X0.300000*%
%TD*%
%TA.AperFunction,SMDPad,CuDef*%
%ADD13R,2.200000X1.800000*%
%TD*%
%TA.AperFunction,SMDPad,CuDef*%
%ADD14RoundRect,0.225000X-0.250000X0.225000X-0.250000X-0.225000X0.250000X-0.225000X0.250000X0.225000X0*%
%TD*%
%TA.AperFunction,ViaPad*%
%ADD15C,0.600000*%
%TD*%
%TA.AperFunction,Conductor*%
%ADD16C,0.200000*%
%TD*%
%TA.AperFunction,Conductor*%
%ADD17C,0.500000*%
%TD*%
%TA.AperFunction,Conductor*%
%ADD18C,0.600000*%
%TD*%
G04 APERTURE END LIST*
D10*
%TO.P,J1,20,Pin_20_20*%
%TO.N,GND*%
X109250000Y-90110000D03*
%TO.P,J1,19,Pin_19_19*%
%TO.N,/BL*%
X111790000Y-90110000D03*
%TO.P,J1,18,Pin_18_18*%
%TO.N,GND*%
X109250000Y-87570000D03*
%TO.P,J1,17,Pin_17_17*%
%TO.N,Net-(J1-Pin_17)*%
X111790000Y-87570000D03*
%TO.P,J1,16,Pin_16_16*%
%TO.N,GND*%
X109250000Y-85030000D03*
%TO.P,J1,15,Pin_15_15*%
%TO.N,Net-(J1-Pin_15)*%
X111790000Y-85030000D03*
%TO.P,J1,14,Pin_14_14*%
%TO.N,GND*%
X109250000Y-82490000D03*
%TO.P,J1,13,Pin_13_13*%
%TO.N,Net-(J1-Pin_13)*%
X111790000Y-82490000D03*
%TO.P,J1,12,Pin_12_12*%
%TO.N,GND*%
X109250000Y-79950000D03*
%TO.P,J1,11,Pin_11_11*%
%TO.N,Net-(J1-Pin_11)*%
X111790000Y-79950000D03*
%TO.P,J1,10,Pin_10_10*%
%TO.N,GND*%
X109250000Y-77410000D03*
%TO.P,J1,9,Pin_9_9*%
%TO.N,Net-(J1-Pin_9)*%
X111790000Y-77410000D03*
%TO.P,J1,8,Pin_8_8*%
%TO.N,GND*%
X109250000Y-74870000D03*
%TO.P,J1,7,Pin_7_7*%
%TO.N,Net-(J1-Pin_7)*%
X111790000Y-74870000D03*
%TO.P,J1,6,Pin_6_6*%
%TO.N,GND*%
X109250000Y-72330000D03*
%TO.P,J1,5,Pin_5_5*%
%TO.N,+3V3*%
X111790000Y-72330000D03*
%TO.P,J1,4,Pin_4_4*%
%TO.N,GND*%
X109250000Y-69790000D03*
%TO.P,J1,3,Pin_3_3*%
%TO.N,+3V3*%
X111790000Y-69790000D03*
%TO.P,J1,2,Pin_2_2*%
%TO.N,GND*%
X109250000Y-67250000D03*
D11*
%TO.P,J1,1,Pin_1_1*%
%TO.N,+3V3*%
X111790000Y-67250000D03*
%TD*%
D12*
%TO.P,J3,1,Pin_1_1*%
%TO.N,GND*%
X128450000Y-82250000D03*
%TO.P,J3,2,Pin_2_2*%
%TO.N,/LEDK2*%
X128450000Y-82750000D03*
%TO.P,J3,3,Pin_3_3*%
%TO.N,+3V3*%
X128450000Y-83250000D03*
%TO.P,J3,4,Pin_4_4*%
X128450000Y-83750000D03*
%TO.P,J3,5,Pin_5_5*%
%TO.N,GND*%
X128450000Y-84250000D03*
%TO.P,J3,6,Pin_6_6*%
X128450000Y-84750000D03*
%TO.P,J3,7,Pin_7_7*%
%TO.N,/DC*%
X128450000Y-85250000D03*
%TO.P,J3,8,Pin_8_8*%
%TO.N,/CS2*%
X128450000Y-85750000D03*
%TO.P,J3,9,Pin_9_9*%
%TO.N,/CLK*%
X128450000Y-86250000D03*
%TO.P,J3,10,Pin_10_10*%
%TO.N,/DIN*%
X128450000Y-86750000D03*
%TO.P,J3,11,Pin_11_11*%
%TO.N,/RST*%
X128450000Y-87250000D03*
%TO.P,J3,12,Pin_12_12*%
%TO.N,GND*%
X128450000Y-87750000D03*
D13*
%TO.P,J3,MP*%
X131700000Y-80350000D03*
X131700000Y-89650000D03*
%TD*%
%TO.P,J2,MP*%
%TO.N,GND*%
X131750000Y-77150000D03*
X131750000Y-67850000D03*
D12*
%TO.P,J2,12,Pin_12_12*%
X128500000Y-75250000D03*
%TO.P,J2,11,Pin_11_11*%
%TO.N,/RST*%
X128500000Y-74750000D03*
%TO.P,J2,10,Pin_10_10*%
%TO.N,/DIN*%
X128500000Y-74250000D03*
%TO.P,J2,9,Pin_9_9*%
%TO.N,/CLK*%
X128500000Y-73750000D03*
%TO.P,J2,8,Pin_8_8*%
%TO.N,/CS1*%
X128500000Y-73250000D03*
%TO.P,J2,7,Pin_7_7*%
%TO.N,/DC*%
X128500000Y-72750000D03*
%TO.P,J2,6,Pin_6_6*%
%TO.N,GND*%
X128500000Y-72250000D03*
%TO.P,J2,5,Pin_5_5*%
X128500000Y-71750000D03*
%TO.P,J2,4,Pin_4_4*%
%TO.N,+3V3*%
X128500000Y-71250000D03*
%TO.P,J2,3,Pin_3_3*%
X128500000Y-70750000D03*
%TO.P,J2,2,Pin_2_2*%
%TO.N,/LEDK1*%
X128500000Y-70250000D03*
%TO.P,J2,1,Pin_1_1*%
%TO.N,GND*%
X128500000Y-69750000D03*
%TD*%
D14*
%TO.P,C4,2*%
%TO.N,GND*%
X126250000Y-84025000D03*
%TO.P,C4,1*%
%TO.N,+3V3*%
X126250000Y-82475000D03*
%TD*%
%TO.P,C3,2*%
%TO.N,GND*%
X126250000Y-71525000D03*
%TO.P,C3,1*%
%TO.N,+3V3*%
X126250000Y-69975000D03*
%TD*%
D15*
%TO.N,/DIN*%
X126397636Y-87610707D03*
%TO.N,/CLK*%
X126570111Y-86829518D03*
%TO.N,/BL*%
X115100000Y-90250000D03*
%TO.N,/RST*%
X124487500Y-87250000D03*
%TO.N,/DIN*%
X119500000Y-85000000D03*
%TO.N,+3V3*%
X130000000Y-83750000D03*
X129750000Y-83000000D03*
X124150000Y-84750000D03*
%TO.N,/DIN*%
X118684314Y-83315686D03*
X120000000Y-82125499D03*
%TO.N,+3V3*%
X124500000Y-68700000D03*
X126750000Y-68700000D03*
X125250000Y-68700000D03*
X126000000Y-68700000D03*
%TO.N,/CLK*%
X118400000Y-82480223D03*
%TO.N,/CS2*%
X118400000Y-80000000D03*
%TO.N,/CS1*%
X118400000Y-77500000D03*
X120000000Y-77500000D03*
%TO.N,/DC*%
X120000000Y-74750000D03*
X118400000Y-74750000D03*
%TO.N,/RST*%
X119434314Y-84065686D03*
X120500000Y-82750000D03*
X122646814Y-86603186D03*
%TO.N,GND*%
X120075000Y-90250000D03*
X121812500Y-89700000D03*
%TO.N,/LEDK2*%
X122750000Y-84000000D03*
%TO.N,/CLK*%
X123250000Y-81250000D03*
X120000000Y-81000000D03*
%TO.N,/DC*%
X126174265Y-77424265D03*
X123750000Y-74750000D03*
%TO.N,/CS2*%
X123500000Y-80250000D03*
%TO.N,/DC*%
X126750000Y-85250000D03*
%TO.N,/RST*%
X126750000Y-88900000D03*
%TO.N,/CS2*%
X126750000Y-86050003D03*
%TO.N,/RST*%
X126750000Y-76000000D03*
%TO.N,/DIN*%
X126750000Y-75150009D03*
%TO.N,/CLK*%
X126750000Y-74350006D03*
%TO.N,/CS1*%
X126750000Y-73550003D03*
%TO.N,/DC*%
X126750000Y-72750000D03*
%TO.N,/LEDK1*%
X127369237Y-69462639D03*
%TO.N,GND*%
X115250000Y-69800000D03*
X115250000Y-68025000D03*
%TD*%
%TO.N,/DIN*%
D16*
X127349998Y-86864220D02*
X127349998Y-86898160D01*
X126637451Y-87610707D02*
X126397636Y-87610707D01*
X127349998Y-86898160D02*
X126637451Y-87610707D01*
%TO.N,/CLK*%
X126749626Y-86650003D02*
X126570111Y-86829518D01*
X126998529Y-86650003D02*
X126749626Y-86650003D01*
X127350000Y-86250000D02*
X127350000Y-86298532D01*
X127350000Y-86298532D02*
X126998529Y-86650003D01*
X128500000Y-86250000D02*
X127350000Y-86250000D01*
%TO.N,/RST*%
X127200000Y-87700000D02*
X127200000Y-88700000D01*
X127650000Y-87250000D02*
X127200000Y-87700000D01*
X128450000Y-87250000D02*
X127650000Y-87250000D01*
X127200000Y-88700000D02*
X126950000Y-88700000D01*
X126950000Y-88700000D02*
X126750000Y-88900000D01*
%TO.N,/DIN*%
X127349998Y-86864220D02*
X127464218Y-86750000D01*
X127464218Y-86750000D02*
X128450000Y-86750000D01*
%TO.N,/RST*%
X128400000Y-87300000D02*
X128450000Y-87250000D01*
X128500000Y-87250000D02*
X128450000Y-87250000D01*
%TO.N,GND*%
D17*
X126250000Y-84250000D02*
X125500000Y-85000000D01*
X126250000Y-84025000D02*
X126250000Y-84250000D01*
X126250000Y-84250000D02*
X125879339Y-84620660D01*
%TO.N,/BL*%
D16*
X111790000Y-90110000D02*
X114960000Y-90110000D01*
X114960000Y-90110000D02*
X115100000Y-90250000D01*
%TO.N,/RST*%
X123732227Y-86494727D02*
X122755273Y-86494727D01*
X124487500Y-87250000D02*
X123732227Y-86494727D01*
X122755273Y-86494727D02*
X122646814Y-86603186D01*
%TO.N,/DIN*%
X119500000Y-85000000D02*
X118684314Y-84184314D01*
X118684314Y-84184314D02*
X118684314Y-83315686D01*
%TO.N,+3V3*%
X128450000Y-83750000D02*
X130000000Y-83750000D01*
X129500000Y-83250000D02*
X129750000Y-83000000D01*
X128450000Y-83250000D02*
X129500000Y-83250000D01*
D17*
X124150000Y-84750000D02*
X124150000Y-84575000D01*
X124150000Y-84575000D02*
X126250000Y-82475000D01*
%TO.N,/DIN*%
D16*
X119874501Y-82125499D02*
X118684314Y-83315686D01*
X120000000Y-82125499D02*
X119874501Y-82125499D01*
%TO.N,+3V3*%
X125775000Y-69975000D02*
X124500000Y-68700000D01*
X126250000Y-69975000D02*
X125775000Y-69975000D01*
X126250000Y-69200000D02*
X126750000Y-68700000D01*
X126250000Y-69975000D02*
X126250000Y-69200000D01*
X126250000Y-69700000D02*
X125250000Y-68700000D01*
X126250000Y-69975000D02*
X126250000Y-69700000D01*
X126250000Y-68950000D02*
X126000000Y-68700000D01*
X126250000Y-69975000D02*
X126250000Y-68950000D01*
%TO.N,/CLK*%
X120000000Y-81000000D02*
X119880223Y-81000000D01*
X119880223Y-81000000D02*
X118400000Y-82480223D01*
%TO.N,/CS2*%
X118400000Y-80000000D02*
X120151470Y-80000000D01*
%TO.N,/CS1*%
X118400000Y-77500000D02*
X120000000Y-77500000D01*
%TO.N,/DC*%
X118400000Y-74750000D02*
X120000000Y-74750000D01*
%TO.N,/RST*%
X120500000Y-83000000D02*
X119434314Y-84065686D01*
X120500000Y-82750000D02*
X120500000Y-83000000D01*
%TO.N,GND*%
D17*
X126250000Y-71525000D02*
X126775000Y-71525000D01*
X126775000Y-71525000D02*
X127400000Y-72150000D01*
X127400000Y-72150000D02*
X129600000Y-72150000D01*
X129600000Y-72150000D02*
X131750000Y-70000000D01*
X131750000Y-70000000D02*
X131750000Y-67850000D01*
X126250000Y-71525000D02*
X126575000Y-71850000D01*
X126575000Y-71850000D02*
X129600000Y-71850000D01*
X129600000Y-71850000D02*
X131750000Y-69700000D01*
X131750000Y-69700000D02*
X131750000Y-67850000D01*
X131700000Y-89650000D02*
X131700000Y-86800000D01*
X131700000Y-86800000D02*
X129550000Y-84650000D01*
X129550000Y-84650000D02*
X129250000Y-84650000D01*
X129550000Y-84350000D02*
X127500000Y-84350000D01*
X129250000Y-84650000D02*
X128450000Y-84650000D01*
X131750000Y-67850000D02*
X131550000Y-67850000D01*
X131550000Y-67850000D02*
X129750000Y-69650000D01*
X129750000Y-69650000D02*
X128500000Y-69650000D01*
X131750000Y-77150000D02*
X129950000Y-75350000D01*
X129950000Y-75350000D02*
X128500000Y-75350000D01*
X131700000Y-89650000D02*
X129900000Y-87850000D01*
X129900000Y-87850000D02*
X128450000Y-87850000D01*
X131700000Y-80350000D02*
X129900000Y-82150000D01*
X129900000Y-82150000D02*
X128450000Y-82150000D01*
X126575000Y-84350000D02*
X127500000Y-84350000D01*
D16*
X128450000Y-84750000D02*
X127900000Y-84750000D01*
X127900000Y-84750000D02*
X127500000Y-84350000D01*
D17*
X126250000Y-84025000D02*
X126575000Y-84350000D01*
%TO.N,/CS2*%
D16*
X120750000Y-80250000D02*
X123500000Y-80250000D01*
X120151470Y-80000000D02*
X120500000Y-80000000D01*
X120500000Y-80000000D02*
X120750000Y-80250000D01*
%TO.N,/LEDK2*%
D18*
X125250000Y-81000000D02*
X127000000Y-81000000D01*
X124750000Y-81500000D02*
X125250000Y-81000000D01*
X122750000Y-84000000D02*
X123631371Y-84000000D01*
X124750000Y-82881371D02*
X124750000Y-81500000D01*
X123631371Y-84000000D02*
X124750000Y-82881371D01*
X127300000Y-81300000D02*
X127300000Y-81962639D01*
X127000000Y-81000000D02*
X127300000Y-81300000D01*
%TO.N,/CLK*%
D16*
X120000000Y-81000000D02*
X120250000Y-81250000D01*
X120250000Y-81250000D02*
X123250000Y-81250000D01*
%TO.N,/DC*%
X126174265Y-77174265D02*
X126174265Y-77424265D01*
X123750000Y-74750000D02*
X126174265Y-77174265D01*
%TO.N,+3V3*%
X128450000Y-83250000D02*
X127500000Y-83250000D01*
X128450000Y-83750000D02*
X128000000Y-83750000D01*
X128000000Y-83750000D02*
X127500000Y-83250000D01*
X127500000Y-83250000D02*
X127025000Y-83250000D01*
X127025000Y-83250000D02*
X126250000Y-82475000D01*
X128500000Y-70750000D02*
X127500000Y-70750000D01*
X128500000Y-71250000D02*
X128000000Y-71250000D01*
X128000000Y-71250000D02*
X127500000Y-70750000D01*
X127500000Y-70750000D02*
X127025000Y-70750000D01*
X127025000Y-70750000D02*
X126250000Y-69975000D01*
%TO.N,/CS2*%
X127098529Y-85750000D02*
X128500000Y-85750000D01*
%TO.N,/DC*%
X128500000Y-85250000D02*
X126750000Y-85250000D01*
%TO.N,/CS2*%
X126750000Y-86050003D02*
X126798526Y-86050003D01*
%TO.N,/LEDK2*%
X127500000Y-82750000D02*
X128500000Y-82750000D01*
X127369237Y-81962639D02*
X127369237Y-82619237D01*
X127369237Y-82619237D02*
X127500000Y-82750000D01*
%TO.N,/CS2*%
X126798526Y-86050003D02*
X127098529Y-85750000D01*
%TO.N,/RST*%
X127507110Y-75242890D02*
X126750000Y-76000000D01*
X127507110Y-75007111D02*
X127507110Y-75242890D01*
X128500000Y-74750000D02*
X127764221Y-74750000D01*
X127764221Y-74750000D02*
X127507110Y-75007111D01*
%TO.N,/DIN*%
X126750000Y-75150009D02*
X126750000Y-75000000D01*
X127500000Y-74250000D02*
X128500000Y-74250000D01*
X126998529Y-74950006D02*
X127350000Y-74598535D01*
X126750000Y-75000000D02*
X126799994Y-74950006D01*
X127350000Y-74598535D02*
X127350000Y-74400000D01*
X126799994Y-74950006D02*
X126998529Y-74950006D01*
X127350000Y-74400000D02*
X127500000Y-74250000D01*
%TO.N,/CS1*%
X126798526Y-73550003D02*
X127098529Y-73250000D01*
X126750000Y-73550003D02*
X126798526Y-73550003D01*
X127098529Y-73250000D02*
X128500000Y-73250000D01*
%TO.N,/CLK*%
X126798526Y-74350006D02*
X126750000Y-74350006D01*
X127398532Y-73750000D02*
X126798526Y-74350006D01*
X128500000Y-73750000D02*
X127398532Y-73750000D01*
%TO.N,/DC*%
X128500000Y-72750000D02*
X126750000Y-72750000D01*
%TO.N,/LEDK1*%
X127369237Y-69462639D02*
X127369237Y-70119237D01*
X127369237Y-70119237D02*
X127500000Y-70250000D01*
X127500000Y-70250000D02*
X128500000Y-70250000D01*
%TD*%
%TA.AperFunction,Conductor*%
%TO.N,GND*%
G36*
X110365270Y-88331717D02*
G01*
X110365270Y-88331716D01*
X110404622Y-88277555D01*
X110409232Y-88268507D01*
X110457205Y-88217709D01*
X110525025Y-88200912D01*
X110591161Y-88223447D01*
X110630204Y-88268504D01*
X110634949Y-88277817D01*
X110759890Y-88449786D01*
X110910213Y-88600109D01*
X111082182Y-88725050D01*
X111090946Y-88729516D01*
X111141742Y-88777491D01*
X111158536Y-88845312D01*
X111135998Y-88911447D01*
X111090946Y-88950484D01*
X111082182Y-88954949D01*
X110910213Y-89079890D01*
X110759890Y-89230213D01*
X110634949Y-89402182D01*
X110630202Y-89411499D01*
X110582227Y-89462293D01*
X110514405Y-89479087D01*
X110448271Y-89456548D01*
X110409234Y-89411495D01*
X110404626Y-89402452D01*
X110365270Y-89348282D01*
X110365269Y-89348282D01*
X109732962Y-89980590D01*
X109715925Y-89917007D01*
X109650099Y-89802993D01*
X109557007Y-89709901D01*
X109442993Y-89644075D01*
X109379409Y-89627037D01*
X110011716Y-88994728D01*
X109957550Y-88955375D01*
X109947954Y-88950486D01*
X109897157Y-88902512D01*
X109880361Y-88834692D01*
X109902897Y-88768556D01*
X109947954Y-88729514D01*
X109957554Y-88724622D01*
X110011716Y-88685270D01*
X110011717Y-88685270D01*
X109379408Y-88052962D01*
X109442993Y-88035925D01*
X109557007Y-87970099D01*
X109650099Y-87877007D01*
X109715925Y-87762993D01*
X109732962Y-87699408D01*
X110365270Y-88331717D01*
G37*
%TD.AperFunction*%
%TA.AperFunction,Conductor*%
G36*
X110365270Y-85791717D02*
G01*
X110365270Y-85791716D01*
X110404622Y-85737555D01*
X110409232Y-85728507D01*
X110457205Y-85677709D01*
X110525025Y-85660912D01*
X110591161Y-85683447D01*
X110630204Y-85728504D01*
X110634949Y-85737817D01*
X110759890Y-85909786D01*
X110910213Y-86060109D01*
X111082182Y-86185050D01*
X111090946Y-86189516D01*
X111141742Y-86237491D01*
X111158536Y-86305312D01*
X111135998Y-86371447D01*
X111090946Y-86410484D01*
X111082182Y-86414949D01*
X110910213Y-86539890D01*
X110759890Y-86690213D01*
X110634949Y-86862182D01*
X110630202Y-86871499D01*
X110582227Y-86922293D01*
X110514405Y-86939087D01*
X110448271Y-86916548D01*
X110409234Y-86871495D01*
X110404626Y-86862452D01*
X110365270Y-86808282D01*
X110365269Y-86808282D01*
X109732962Y-87440590D01*
X109715925Y-87377007D01*
X109650099Y-87262993D01*
X109557007Y-87169901D01*
X109442993Y-87104075D01*
X109379409Y-87087037D01*
X110011716Y-86454728D01*
X109957550Y-86415375D01*
X109947954Y-86410486D01*
X109897157Y-86362512D01*
X109880361Y-86294692D01*
X109902897Y-86228556D01*
X109947954Y-86189514D01*
X109957554Y-86184622D01*
X110011716Y-86145270D01*
X110011717Y-86145270D01*
X109379408Y-85512962D01*
X109442993Y-85495925D01*
X109557007Y-85430099D01*
X109650099Y-85337007D01*
X109715925Y-85222993D01*
X109732962Y-85159408D01*
X110365270Y-85791717D01*
G37*
%TD.AperFunction*%
%TA.AperFunction,Conductor*%
G36*
X110365270Y-83251717D02*
G01*
X110365270Y-83251716D01*
X110404622Y-83197555D01*
X110409232Y-83188507D01*
X110457205Y-83137709D01*
X110525025Y-83120912D01*
X110591161Y-83143447D01*
X110630204Y-83188504D01*
X110634949Y-83197817D01*
X110759890Y-83369786D01*
X110910213Y-83520109D01*
X111082182Y-83645050D01*
X111090946Y-83649516D01*
X111141742Y-83697491D01*
X111158536Y-83765312D01*
X111135998Y-83831447D01*
X111090946Y-83870484D01*
X111082182Y-83874949D01*
X110910213Y-83999890D01*
X110759890Y-84150213D01*
X110634949Y-84322182D01*
X110630202Y-84331499D01*
X110582227Y-84382293D01*
X110514405Y-84399087D01*
X110448271Y-84376548D01*
X110409234Y-84331495D01*
X110404626Y-84322452D01*
X110365270Y-84268282D01*
X110365269Y-84268282D01*
X109732962Y-84900590D01*
X109715925Y-84837007D01*
X109650099Y-84722993D01*
X109557007Y-84629901D01*
X109442993Y-84564075D01*
X109379409Y-84547037D01*
X110011716Y-83914728D01*
X109957550Y-83875375D01*
X109947954Y-83870486D01*
X109897157Y-83822512D01*
X109880361Y-83754692D01*
X109902897Y-83688556D01*
X109947954Y-83649514D01*
X109957554Y-83644622D01*
X110011716Y-83605270D01*
X110011717Y-83605270D01*
X109379408Y-82972962D01*
X109442993Y-82955925D01*
X109557007Y-82890099D01*
X109650099Y-82797007D01*
X109715925Y-82682993D01*
X109732962Y-82619408D01*
X110365270Y-83251717D01*
G37*
%TD.AperFunction*%
%TA.AperFunction,Conductor*%
G36*
X110365270Y-80711717D02*
G01*
X110365270Y-80711716D01*
X110404622Y-80657555D01*
X110409232Y-80648507D01*
X110457205Y-80597709D01*
X110525025Y-80580912D01*
X110591161Y-80603447D01*
X110630204Y-80648504D01*
X110634949Y-80657817D01*
X110759890Y-80829786D01*
X110910213Y-80980109D01*
X111082182Y-81105050D01*
X111090946Y-81109516D01*
X111141742Y-81157491D01*
X111158536Y-81225312D01*
X111135998Y-81291447D01*
X111090946Y-81330484D01*
X111082182Y-81334949D01*
X110910213Y-81459890D01*
X110759890Y-81610213D01*
X110634949Y-81782182D01*
X110630202Y-81791499D01*
X110582227Y-81842293D01*
X110514405Y-81859087D01*
X110448271Y-81836548D01*
X110409234Y-81791495D01*
X110404626Y-81782452D01*
X110365270Y-81728282D01*
X110365269Y-81728282D01*
X109732962Y-82360590D01*
X109715925Y-82297007D01*
X109650099Y-82182993D01*
X109557007Y-82089901D01*
X109442993Y-82024075D01*
X109379409Y-82007037D01*
X110011716Y-81374728D01*
X109957550Y-81335375D01*
X109947954Y-81330486D01*
X109897157Y-81282512D01*
X109880361Y-81214692D01*
X109902897Y-81148556D01*
X109947954Y-81109514D01*
X109957554Y-81104622D01*
X110011716Y-81065270D01*
X110011717Y-81065270D01*
X109379408Y-80432962D01*
X109442993Y-80415925D01*
X109557007Y-80350099D01*
X109650099Y-80257007D01*
X109715925Y-80142993D01*
X109732962Y-80079408D01*
X110365270Y-80711717D01*
G37*
%TD.AperFunction*%
%TA.AperFunction,Conductor*%
G36*
X110365270Y-78171717D02*
G01*
X110365270Y-78171716D01*
X110404622Y-78117555D01*
X110409232Y-78108507D01*
X110457205Y-78057709D01*
X110525025Y-78040912D01*
X110591161Y-78063447D01*
X110630204Y-78108504D01*
X110634949Y-78117817D01*
X110759890Y-78289786D01*
X110910213Y-78440109D01*
X111082182Y-78565050D01*
X111090946Y-78569516D01*
X111141742Y-78617491D01*
X111158536Y-78685312D01*
X111135998Y-78751447D01*
X111090946Y-78790484D01*
X111082182Y-78794949D01*
X110910213Y-78919890D01*
X110759890Y-79070213D01*
X110634949Y-79242182D01*
X110630202Y-79251499D01*
X110582227Y-79302293D01*
X110514405Y-79319087D01*
X110448271Y-79296548D01*
X110409234Y-79251495D01*
X110404626Y-79242452D01*
X110365270Y-79188282D01*
X110365269Y-79188282D01*
X109732962Y-79820590D01*
X109715925Y-79757007D01*
X109650099Y-79642993D01*
X109557007Y-79549901D01*
X109442993Y-79484075D01*
X109379409Y-79467037D01*
X110011716Y-78834728D01*
X109957550Y-78795375D01*
X109947954Y-78790486D01*
X109897157Y-78742512D01*
X109880361Y-78674692D01*
X109902897Y-78608556D01*
X109947954Y-78569514D01*
X109957554Y-78564622D01*
X110011716Y-78525270D01*
X110011717Y-78525270D01*
X109379408Y-77892962D01*
X109442993Y-77875925D01*
X109557007Y-77810099D01*
X109650099Y-77717007D01*
X109715925Y-77602993D01*
X109732962Y-77539408D01*
X110365270Y-78171717D01*
G37*
%TD.AperFunction*%
%TA.AperFunction,Conductor*%
G36*
X110365270Y-75631717D02*
G01*
X110365270Y-75631716D01*
X110404622Y-75577555D01*
X110409232Y-75568507D01*
X110457205Y-75517709D01*
X110525025Y-75500912D01*
X110591161Y-75523447D01*
X110630204Y-75568504D01*
X110634949Y-75577817D01*
X110759890Y-75749786D01*
X110910213Y-75900109D01*
X111082182Y-76025050D01*
X111090946Y-76029516D01*
X111141742Y-76077491D01*
X111158536Y-76145312D01*
X111135998Y-76211447D01*
X111090946Y-76250484D01*
X111082182Y-76254949D01*
X110910213Y-76379890D01*
X110759890Y-76530213D01*
X110634949Y-76702182D01*
X110630202Y-76711499D01*
X110582227Y-76762293D01*
X110514405Y-76779087D01*
X110448271Y-76756548D01*
X110409234Y-76711495D01*
X110404626Y-76702452D01*
X110365270Y-76648282D01*
X110365269Y-76648282D01*
X109732962Y-77280590D01*
X109715925Y-77217007D01*
X109650099Y-77102993D01*
X109557007Y-77009901D01*
X109442993Y-76944075D01*
X109379409Y-76927037D01*
X110011716Y-76294728D01*
X109957550Y-76255375D01*
X109947954Y-76250486D01*
X109897157Y-76202512D01*
X109880361Y-76134692D01*
X109902897Y-76068556D01*
X109947954Y-76029514D01*
X109957554Y-76024622D01*
X110011716Y-75985270D01*
X110011717Y-75985270D01*
X109379408Y-75352962D01*
X109442993Y-75335925D01*
X109557007Y-75270099D01*
X109650099Y-75177007D01*
X109715925Y-75062993D01*
X109732962Y-74999408D01*
X110365270Y-75631717D01*
G37*
%TD.AperFunction*%
%TA.AperFunction,Conductor*%
G36*
X110365270Y-73091717D02*
G01*
X110365270Y-73091716D01*
X110404622Y-73037555D01*
X110409232Y-73028507D01*
X110457205Y-72977709D01*
X110525025Y-72960912D01*
X110591161Y-72983447D01*
X110630204Y-73028504D01*
X110634949Y-73037817D01*
X110759890Y-73209786D01*
X110910213Y-73360109D01*
X111082182Y-73485050D01*
X111090946Y-73489516D01*
X111141742Y-73537491D01*
X111158536Y-73605312D01*
X111135998Y-73671447D01*
X111090946Y-73710484D01*
X111082182Y-73714949D01*
X110910213Y-73839890D01*
X110759890Y-73990213D01*
X110634949Y-74162182D01*
X110630202Y-74171499D01*
X110582227Y-74222293D01*
X110514405Y-74239087D01*
X110448271Y-74216548D01*
X110409234Y-74171495D01*
X110404626Y-74162452D01*
X110365270Y-74108282D01*
X110365269Y-74108282D01*
X109732962Y-74740590D01*
X109715925Y-74677007D01*
X109650099Y-74562993D01*
X109557007Y-74469901D01*
X109442993Y-74404075D01*
X109379409Y-74387037D01*
X110011716Y-73754728D01*
X109957550Y-73715375D01*
X109947954Y-73710486D01*
X109897157Y-73662512D01*
X109880361Y-73594692D01*
X109902897Y-73528556D01*
X109947954Y-73489514D01*
X109957554Y-73484622D01*
X110011716Y-73445270D01*
X110011717Y-73445270D01*
X109379408Y-72812962D01*
X109442993Y-72795925D01*
X109557007Y-72730099D01*
X109650099Y-72637007D01*
X109715925Y-72522993D01*
X109732962Y-72459408D01*
X110365270Y-73091717D01*
G37*
%TD.AperFunction*%
%TA.AperFunction,Conductor*%
G36*
X110365270Y-70551717D02*
G01*
X110365270Y-70551716D01*
X110404622Y-70497555D01*
X110409232Y-70488507D01*
X110457205Y-70437709D01*
X110525025Y-70420912D01*
X110591161Y-70443447D01*
X110630204Y-70488504D01*
X110634949Y-70497817D01*
X110759890Y-70669786D01*
X110910213Y-70820109D01*
X111082182Y-70945050D01*
X111090946Y-70949516D01*
X111141742Y-70997491D01*
X111158536Y-71065312D01*
X111135998Y-71131447D01*
X111090946Y-71170484D01*
X111082182Y-71174949D01*
X110910213Y-71299890D01*
X110759890Y-71450213D01*
X110634949Y-71622182D01*
X110630202Y-71631499D01*
X110582227Y-71682293D01*
X110514405Y-71699087D01*
X110448271Y-71676548D01*
X110409234Y-71631495D01*
X110404626Y-71622452D01*
X110365270Y-71568282D01*
X110365269Y-71568282D01*
X109732962Y-72200590D01*
X109715925Y-72137007D01*
X109650099Y-72022993D01*
X109557007Y-71929901D01*
X109442993Y-71864075D01*
X109379409Y-71847037D01*
X110011716Y-71214728D01*
X109957550Y-71175375D01*
X109947954Y-71170486D01*
X109897157Y-71122512D01*
X109880361Y-71054692D01*
X109902897Y-70988556D01*
X109947954Y-70949514D01*
X109957554Y-70944622D01*
X110011716Y-70905270D01*
X110011717Y-70905270D01*
X109379408Y-70272962D01*
X109442993Y-70255925D01*
X109557007Y-70190099D01*
X109650099Y-70097007D01*
X109715925Y-69982993D01*
X109732962Y-69919408D01*
X110365270Y-70551717D01*
G37*
%TD.AperFunction*%
%TA.AperFunction,Conductor*%
G36*
X110403181Y-68049628D02*
G01*
X110436666Y-68110951D01*
X110439500Y-68137300D01*
X110439500Y-68147865D01*
X110439501Y-68147876D01*
X110445908Y-68207483D01*
X110496202Y-68342328D01*
X110496206Y-68342335D01*
X110582452Y-68457544D01*
X110582455Y-68457547D01*
X110697664Y-68543793D01*
X110697671Y-68543797D01*
X110829082Y-68592810D01*
X110885016Y-68634681D01*
X110909433Y-68700145D01*
X110894582Y-68768418D01*
X110873431Y-68796673D01*
X110759889Y-68910215D01*
X110634949Y-69082182D01*
X110630202Y-69091499D01*
X110582227Y-69142293D01*
X110514405Y-69159087D01*
X110448271Y-69136548D01*
X110409234Y-69091495D01*
X110404626Y-69082452D01*
X110365270Y-69028282D01*
X110365269Y-69028282D01*
X109732962Y-69660590D01*
X109715925Y-69597007D01*
X109650099Y-69482993D01*
X109557007Y-69389901D01*
X109442993Y-69324075D01*
X109379409Y-69307037D01*
X110011716Y-68674728D01*
X109957550Y-68635375D01*
X109947954Y-68630486D01*
X109897157Y-68582512D01*
X109880361Y-68514692D01*
X109902897Y-68448556D01*
X109947954Y-68409514D01*
X109957554Y-68404622D01*
X110011716Y-68365270D01*
X110011717Y-68365270D01*
X109379408Y-67732962D01*
X109442993Y-67715925D01*
X109557007Y-67650099D01*
X109650099Y-67557007D01*
X109715925Y-67442993D01*
X109732962Y-67379408D01*
X110403181Y-68049628D01*
G37*
%TD.AperFunction*%
%TA.AperFunction,Conductor*%
G36*
X133003736Y-57900726D02*
G01*
X133293796Y-57918271D01*
X133308659Y-57920076D01*
X133590797Y-57971780D01*
X133605334Y-57975363D01*
X133879182Y-58060698D01*
X133893163Y-58066000D01*
X134154734Y-58183724D01*
X134167987Y-58190680D01*
X134413458Y-58339071D01*
X134425776Y-58347573D01*
X134651573Y-58524474D01*
X134662781Y-58534404D01*
X134865595Y-58737218D01*
X134875525Y-58748426D01*
X135052422Y-58974217D01*
X135060928Y-58986541D01*
X135209319Y-59232012D01*
X135216277Y-59245269D01*
X135333994Y-59506823D01*
X135339304Y-59520825D01*
X135424635Y-59794664D01*
X135428219Y-59809202D01*
X135479923Y-60091340D01*
X135481728Y-60106205D01*
X135499274Y-60396263D01*
X135499500Y-60403750D01*
X135499500Y-97396249D01*
X135499274Y-97403736D01*
X135481728Y-97693794D01*
X135479923Y-97708659D01*
X135428219Y-97990797D01*
X135424635Y-98005335D01*
X135339304Y-98279174D01*
X135333994Y-98293176D01*
X135216277Y-98554730D01*
X135209319Y-98567987D01*
X135060928Y-98813458D01*
X135052422Y-98825782D01*
X134875525Y-99051573D01*
X134865595Y-99062781D01*
X134662781Y-99265595D01*
X134651573Y-99275525D01*
X134425782Y-99452422D01*
X134413458Y-99460928D01*
X134167987Y-99609319D01*
X134154730Y-99616277D01*
X133893176Y-99733994D01*
X133879174Y-99739304D01*
X133605335Y-99824635D01*
X133590797Y-99828219D01*
X133308659Y-99879923D01*
X133293794Y-99881728D01*
X133003736Y-99899274D01*
X132996249Y-99899500D01*
X106803751Y-99899500D01*
X106796264Y-99899274D01*
X106506205Y-99881728D01*
X106491340Y-99879923D01*
X106209202Y-99828219D01*
X106194664Y-99824635D01*
X105920825Y-99739304D01*
X105906827Y-99733995D01*
X105754096Y-99665256D01*
X105645269Y-99616277D01*
X105632012Y-99609319D01*
X105386541Y-99460928D01*
X105374217Y-99452422D01*
X105148426Y-99275525D01*
X105137218Y-99265595D01*
X104934404Y-99062781D01*
X104924474Y-99051573D01*
X104747573Y-98825776D01*
X104739071Y-98813458D01*
X104590680Y-98567987D01*
X104583722Y-98554730D01*
X104466000Y-98293163D01*
X104460698Y-98279182D01*
X104375363Y-98005334D01*
X104371780Y-97990797D01*
X104320076Y-97708659D01*
X104318271Y-97693794D01*
X104309603Y-97550500D01*
X104300726Y-97403736D01*
X104300500Y-97396249D01*
X104300500Y-95578711D01*
X106149500Y-95578711D01*
X106149500Y-95821288D01*
X106181161Y-96061785D01*
X106243947Y-96296104D01*
X106285367Y-96396100D01*
X106336776Y-96520212D01*
X106458064Y-96730289D01*
X106458066Y-96730292D01*
X106458067Y-96730293D01*
X106605733Y-96922736D01*
X106605739Y-96922743D01*
X106777256Y-97094260D01*
X106777262Y-97094265D01*
X106969711Y-97241936D01*
X107179788Y-97363224D01*
X107403900Y-97456054D01*
X107638211Y-97518838D01*
X107818586Y-97542584D01*
X107878711Y-97550500D01*
X107878712Y-97550500D01*
X108121289Y-97550500D01*
X108169388Y-97544167D01*
X108361789Y-97518838D01*
X108596100Y-97456054D01*
X108820212Y-97363224D01*
X109030289Y-97241936D01*
X109222738Y-97094265D01*
X109394265Y-96922738D01*
X109541936Y-96730289D01*
X109663224Y-96520212D01*
X109756054Y-96296100D01*
X109818838Y-96061789D01*
X109850500Y-95821288D01*
X109850500Y-95678711D01*
X130149500Y-95678711D01*
X130149500Y-95921288D01*
X130181161Y-96161785D01*
X130243947Y-96396104D01*
X130336773Y-96620205D01*
X130336776Y-96620212D01*
X130458064Y-96830289D01*
X130458066Y-96830292D01*
X130458067Y-96830293D01*
X130605733Y-97022736D01*
X130605739Y-97022743D01*
X130777256Y-97194260D01*
X130777262Y-97194265D01*
X130969711Y-97341936D01*
X131179788Y-97463224D01*
X131403900Y-97556054D01*
X131638211Y-97618838D01*
X131818586Y-97642584D01*
X131878711Y-97650500D01*
X131878712Y-97650500D01*
X132121289Y-97650500D01*
X132169388Y-97644167D01*
X132361789Y-97618838D01*
X132596100Y-97556054D01*
X132820212Y-97463224D01*
X133030289Y-97341936D01*
X133222738Y-97194265D01*
X133394265Y-97022738D01*
X133541936Y-96830289D01*
X133663224Y-96620212D01*
X133756054Y-96396100D01*
X133818838Y-96161789D01*
X133850500Y-95921288D01*
X133850500Y-95678712D01*
X133818838Y-95438211D01*
X133756054Y-95203900D01*
X133663224Y-94979788D01*
X133541936Y-94769711D01*
X133481018Y-94690321D01*
X133394266Y-94577263D01*
X133394260Y-94577256D01*
X133222743Y-94405739D01*
X133222736Y-94405733D01*
X133030293Y-94258067D01*
X133030292Y-94258066D01*
X133030289Y-94258064D01*
X132820212Y-94136776D01*
X132820205Y-94136773D01*
X132596104Y-94043947D01*
X132361785Y-93981161D01*
X132121289Y-93949500D01*
X132121288Y-93949500D01*
X131878712Y-93949500D01*
X131878711Y-93949500D01*
X131638214Y-93981161D01*
X131403895Y-94043947D01*
X131179794Y-94136773D01*
X131179785Y-94136777D01*
X130969706Y-94258067D01*
X130777263Y-94405733D01*
X130777256Y-94405739D01*
X130605739Y-94577256D01*
X130605733Y-94577263D01*
X130458067Y-94769706D01*
X130336777Y-94979785D01*
X130336773Y-94979794D01*
X130243947Y-95203895D01*
X130181161Y-95438214D01*
X130149500Y-95678711D01*
X109850500Y-95678711D01*
X109850500Y-95578712D01*
X109818838Y-95338211D01*
X109756054Y-95103900D01*
X109663224Y-94879788D01*
X109541936Y-94669711D01*
X109394265Y-94477262D01*
X109394260Y-94477256D01*
X109222743Y-94305739D01*
X109222736Y-94305733D01*
X109030293Y-94158067D01*
X109030292Y-94158066D01*
X109030289Y-94158064D01*
X108820212Y-94036776D01*
X108820205Y-94036773D01*
X108596104Y-93943947D01*
X108361785Y-93881161D01*
X108121289Y-93849500D01*
X108121288Y-93849500D01*
X107878712Y-93849500D01*
X107878711Y-93849500D01*
X107638214Y-93881161D01*
X107403895Y-93943947D01*
X107179794Y-94036773D01*
X107179785Y-94036777D01*
X106969706Y-94158067D01*
X106777263Y-94305733D01*
X106777256Y-94305739D01*
X106605739Y-94477256D01*
X106605733Y-94477263D01*
X106458067Y-94669706D01*
X106336777Y-94879785D01*
X106336773Y-94879794D01*
X106243947Y-95103895D01*
X106181161Y-95338214D01*
X106149500Y-95578711D01*
X104300500Y-95578711D01*
X104300500Y-67143753D01*
X107900000Y-67143753D01*
X107900000Y-67356246D01*
X107933242Y-67566127D01*
X107933242Y-67566130D01*
X107998904Y-67768217D01*
X108095375Y-67957550D01*
X108134728Y-68011716D01*
X108767037Y-67379408D01*
X108784075Y-67442993D01*
X108849901Y-67557007D01*
X108942993Y-67650099D01*
X109057007Y-67715925D01*
X109120591Y-67732962D01*
X108519971Y-68333581D01*
X108598711Y-68450895D01*
X108599920Y-68454729D01*
X108602844Y-68457491D01*
X108610343Y-68487778D01*
X108619727Y-68517529D01*
X108618671Y-68521408D01*
X108619638Y-68525312D01*
X108609573Y-68554844D01*
X108601383Y-68584947D01*
X108598397Y-68587640D01*
X108597100Y-68591447D01*
X108552051Y-68630483D01*
X108542440Y-68635380D01*
X108488282Y-68674727D01*
X108488282Y-68674728D01*
X109120591Y-69307037D01*
X109057007Y-69324075D01*
X108942993Y-69389901D01*
X108849901Y-69482993D01*
X108784075Y-69597007D01*
X108767037Y-69660591D01*
X108134728Y-69028282D01*
X108134727Y-69028282D01*
X108095380Y-69082439D01*
X107998904Y-69271782D01*
X107933242Y-69473869D01*
X107933242Y-69473872D01*
X107900000Y-69683753D01*
X107900000Y-69896246D01*
X107933242Y-70106127D01*
X107933242Y-70106130D01*
X107998904Y-70308217D01*
X108095375Y-70497550D01*
X108134728Y-70551716D01*
X108767037Y-69919408D01*
X108784075Y-69982993D01*
X108849901Y-70097007D01*
X108942993Y-70190099D01*
X109057007Y-70255925D01*
X109120591Y-70272962D01*
X108519971Y-70873581D01*
X108598711Y-70990895D01*
X108599920Y-70994729D01*
X108602844Y-70997491D01*
X108610343Y-71027778D01*
X108619727Y-71057529D01*
X108618671Y-71061408D01*
X108619638Y-71065312D01*
X108609573Y-71094844D01*
X108601383Y-71124947D01*
X108598397Y-71127640D01*
X108597100Y-71131447D01*
X108552051Y-71170483D01*
X108542440Y-71175380D01*
X108488282Y-71214727D01*
X108488282Y-71214728D01*
X109120591Y-71847037D01*
X109057007Y-71864075D01*
X108942993Y-71929901D01*
X108849901Y-72022993D01*
X108784075Y-72137007D01*
X108767037Y-72200591D01*
X108134728Y-71568282D01*
X108134727Y-71568282D01*
X108095380Y-71622439D01*
X107998904Y-71811782D01*
X107933242Y-72013869D01*
X107933242Y-72013872D01*
X107900000Y-72223753D01*
X107900000Y-72436246D01*
X107933242Y-72646127D01*
X107933242Y-72646130D01*
X107998904Y-72848217D01*
X108095375Y-73037550D01*
X108134728Y-73091716D01*
X108767037Y-72459408D01*
X108784075Y-72522993D01*
X108849901Y-72637007D01*
X108942993Y-72730099D01*
X109057007Y-72795925D01*
X109120591Y-72812962D01*
X108519971Y-73413581D01*
X108598711Y-73530895D01*
X108599920Y-73534729D01*
X108602844Y-73537491D01*
X108610343Y-73567778D01*
X108619727Y-73597529D01*
X108618671Y-73601408D01*
X108619638Y-73605312D01*
X108609573Y-73634844D01*
X108601383Y-73664947D01*
X108598397Y-73667640D01*
X108597100Y-73671447D01*
X108552051Y-73710483D01*
X108542440Y-73715380D01*
X108488282Y-73754727D01*
X108488282Y-73754728D01*
X109120591Y-74387037D01*
X109057007Y-74404075D01*
X108942993Y-74469901D01*
X108849901Y-74562993D01*
X108784075Y-74677007D01*
X108767037Y-74740591D01*
X108134728Y-74108282D01*
X108134727Y-74108282D01*
X108095380Y-74162439D01*
X107998904Y-74351782D01*
X107933242Y-74553869D01*
X107933242Y-74553872D01*
X107900000Y-74763753D01*
X107900000Y-74976246D01*
X107933242Y-75186127D01*
X107933242Y-75186130D01*
X107998904Y-75388217D01*
X108095375Y-75577550D01*
X108134728Y-75631716D01*
X108767037Y-74999408D01*
X108784075Y-75062993D01*
X108849901Y-75177007D01*
X108942993Y-75270099D01*
X109057007Y-75335925D01*
X109120591Y-75352962D01*
X108519971Y-75953581D01*
X108598711Y-76070895D01*
X108599920Y-76074729D01*
X108602844Y-76077491D01*
X108610343Y-76107778D01*
X108619727Y-76137529D01*
X108618671Y-76141408D01*
X108619638Y-76145312D01*
X108609573Y-76174844D01*
X108601383Y-76204947D01*
X108598397Y-76207640D01*
X108597100Y-76211447D01*
X108552051Y-76250483D01*
X108542440Y-76255380D01*
X108488282Y-76294727D01*
X108488282Y-76294728D01*
X109120591Y-76927037D01*
X109057007Y-76944075D01*
X108942993Y-77009901D01*
X108849901Y-77102993D01*
X108784075Y-77217007D01*
X108767037Y-77280591D01*
X108134728Y-76648282D01*
X108134727Y-76648282D01*
X108095380Y-76702439D01*
X107998904Y-76891782D01*
X107933242Y-77093869D01*
X107933242Y-77093872D01*
X107900000Y-77303753D01*
X107900000Y-77516246D01*
X107933242Y-77726127D01*
X107933242Y-77726130D01*
X107998904Y-77928217D01*
X108095375Y-78117550D01*
X108134728Y-78171716D01*
X108767037Y-77539408D01*
X108784075Y-77602993D01*
X108849901Y-77717007D01*
X108942993Y-77810099D01*
X109057007Y-77875925D01*
X109120591Y-77892962D01*
X108519971Y-78493581D01*
X108598711Y-78610895D01*
X108599920Y-78614729D01*
X108602844Y-78617491D01*
X108610343Y-78647778D01*
X108619727Y-78677529D01*
X108618671Y-78681408D01*
X108619638Y-78685312D01*
X108609573Y-78714844D01*
X108601383Y-78744947D01*
X108598397Y-78747640D01*
X108597100Y-78751447D01*
X108552051Y-78790483D01*
X108542440Y-78795380D01*
X108488282Y-78834727D01*
X108488282Y-78834728D01*
X109120591Y-79467037D01*
X109057007Y-79484075D01*
X108942993Y-79549901D01*
X108849901Y-79642993D01*
X108784075Y-79757007D01*
X108767037Y-79820591D01*
X108134728Y-79188282D01*
X108134727Y-79188282D01*
X108095380Y-79242439D01*
X107998904Y-79431782D01*
X107933242Y-79633869D01*
X107933242Y-79633872D01*
X107900000Y-79843753D01*
X107900000Y-80056246D01*
X107933242Y-80266127D01*
X107933242Y-80266130D01*
X107998904Y-80468217D01*
X108095375Y-80657550D01*
X108134728Y-80711716D01*
X108767037Y-80079408D01*
X108784075Y-80142993D01*
X108849901Y-80257007D01*
X108942993Y-80350099D01*
X109057007Y-80415925D01*
X109120591Y-80432962D01*
X108519971Y-81033581D01*
X108598711Y-81150895D01*
X108599920Y-81154729D01*
X108602844Y-81157491D01*
X108610343Y-81187778D01*
X108619727Y-81217529D01*
X108618671Y-81221408D01*
X108619638Y-81225312D01*
X108609573Y-81254844D01*
X108601383Y-81284947D01*
X108598397Y-81287640D01*
X108597100Y-81291447D01*
X108552051Y-81330483D01*
X108542440Y-81335380D01*
X108488282Y-81374727D01*
X108488282Y-81374728D01*
X109120591Y-82007037D01*
X109057007Y-82024075D01*
X108942993Y-82089901D01*
X108849901Y-82182993D01*
X108784075Y-82297007D01*
X108767037Y-82360591D01*
X108134728Y-81728282D01*
X108134727Y-81728282D01*
X108095380Y-81782439D01*
X107998904Y-81971782D01*
X107933242Y-82173869D01*
X107933242Y-82173872D01*
X107900000Y-82383753D01*
X107900000Y-82596246D01*
X107933242Y-82806127D01*
X107933242Y-82806130D01*
X107998904Y-83008217D01*
X108095375Y-83197550D01*
X108134728Y-83251716D01*
X108767037Y-82619408D01*
X108784075Y-82682993D01*
X108849901Y-82797007D01*
X108942993Y-82890099D01*
X109057007Y-82955925D01*
X109120591Y-82972962D01*
X108519971Y-83573581D01*
X108598711Y-83690895D01*
X108599920Y-83694729D01*
X108602844Y-83697491D01*
X108610343Y-83727778D01*
X108619727Y-83757529D01*
X108618671Y-83761408D01*
X108619638Y-83765312D01*
X108609573Y-83794844D01*
X108601383Y-83824947D01*
X108598397Y-83827640D01*
X108597100Y-83831447D01*
X108552051Y-83870483D01*
X108542440Y-83875380D01*
X108488282Y-83914727D01*
X108488282Y-83914728D01*
X109120591Y-84547037D01*
X109057007Y-84564075D01*
X108942993Y-84629901D01*
X108849901Y-84722993D01*
X108784075Y-84837007D01*
X108767037Y-84900591D01*
X108134728Y-84268282D01*
X108134727Y-84268282D01*
X108095380Y-84322439D01*
X107998904Y-84511782D01*
X107933242Y-84713869D01*
X107933242Y-84713872D01*
X107900000Y-84923753D01*
X107900000Y-85136246D01*
X107933242Y-85346127D01*
X107933242Y-85346130D01*
X107998904Y-85548217D01*
X108095375Y-85737550D01*
X108134728Y-85791716D01*
X108767037Y-85159408D01*
X108784075Y-85222993D01*
X108849901Y-85337007D01*
X108942993Y-85430099D01*
X109057007Y-85495925D01*
X109120591Y-85512962D01*
X108519971Y-86113581D01*
X108598711Y-86230895D01*
X108599920Y-86234729D01*
X108602844Y-86237491D01*
X108610343Y-86267778D01*
X108619727Y-86297529D01*
X108618671Y-86301408D01*
X108619638Y-86305312D01*
X108609573Y-86334844D01*
X108601383Y-86364947D01*
X108598397Y-86367640D01*
X108597100Y-86371447D01*
X108552051Y-86410483D01*
X108542440Y-86415380D01*
X108488282Y-86454727D01*
X108488282Y-86454728D01*
X109120591Y-87087037D01*
X109057007Y-87104075D01*
X108942993Y-87169901D01*
X108849901Y-87262993D01*
X108784075Y-87377007D01*
X108767037Y-87440591D01*
X108134728Y-86808282D01*
X108134727Y-86808282D01*
X108095380Y-86862439D01*
X107998904Y-87051782D01*
X107933242Y-87253869D01*
X107933242Y-87253872D01*
X107900000Y-87463753D01*
X107900000Y-87676246D01*
X107933242Y-87886127D01*
X107933242Y-87886130D01*
X107998904Y-88088217D01*
X108095375Y-88277550D01*
X108134728Y-88331716D01*
X108767037Y-87699408D01*
X108784075Y-87762993D01*
X108849901Y-87877007D01*
X108942993Y-87970099D01*
X109057007Y-88035925D01*
X109120591Y-88052962D01*
X108519971Y-88653581D01*
X108598711Y-88770895D01*
X108599920Y-88774729D01*
X108602844Y-88777491D01*
X108610343Y-88807778D01*
X108619727Y-88837529D01*
X108618671Y-88841408D01*
X108619638Y-88845312D01*
X108609573Y-88874844D01*
X108601383Y-88904947D01*
X108598397Y-88907640D01*
X108597100Y-88911447D01*
X108552051Y-88950483D01*
X108542440Y-88955380D01*
X108488282Y-88994727D01*
X108488282Y-88994728D01*
X109120591Y-89627037D01*
X109057007Y-89644075D01*
X108942993Y-89709901D01*
X108849901Y-89802993D01*
X108784075Y-89917007D01*
X108767037Y-89980591D01*
X108134728Y-89348282D01*
X108134727Y-89348282D01*
X108095380Y-89402439D01*
X107998904Y-89591782D01*
X107933242Y-89793869D01*
X107933242Y-89793872D01*
X107900000Y-90003753D01*
X107900000Y-90216246D01*
X107933242Y-90426127D01*
X107933242Y-90426130D01*
X107998904Y-90628217D01*
X108095375Y-90817550D01*
X108134728Y-90871716D01*
X108767037Y-90239408D01*
X108784075Y-90302993D01*
X108849901Y-90417007D01*
X108942993Y-90510099D01*
X109057007Y-90575925D01*
X109120590Y-90592962D01*
X108488282Y-91225269D01*
X108488282Y-91225270D01*
X108542449Y-91264624D01*
X108731782Y-91361095D01*
X108933870Y-91426757D01*
X109143754Y-91460000D01*
X109356246Y-91460000D01*
X109566127Y-91426757D01*
X109566130Y-91426757D01*
X109768217Y-91361095D01*
X109957554Y-91264622D01*
X110011716Y-91225270D01*
X110011717Y-91225270D01*
X109379408Y-90592962D01*
X109442993Y-90575925D01*
X109557007Y-90510099D01*
X109650099Y-90417007D01*
X109715925Y-90302993D01*
X109732962Y-90239408D01*
X110365270Y-90871717D01*
X110365270Y-90871716D01*
X110404622Y-90817555D01*
X110409232Y-90808507D01*
X110457205Y-90757709D01*
X110525025Y-90740912D01*
X110591161Y-90763447D01*
X110630204Y-90808504D01*
X110634949Y-90817817D01*
X110759890Y-90989786D01*
X110910213Y-91140109D01*
X111082179Y-91265048D01*
X111082181Y-91265049D01*
X111082184Y-91265051D01*
X111271588Y-91361557D01*
X111473757Y-91427246D01*
X111683713Y-91460500D01*
X111683714Y-91460500D01*
X111896286Y-91460500D01*
X111896287Y-91460500D01*
X112106243Y-91427246D01*
X112308412Y-91361557D01*
X112497816Y-91265051D01*
X112552572Y-91225269D01*
X112669786Y-91140109D01*
X112669788Y-91140106D01*
X112669792Y-91140104D01*
X112820104Y-90989792D01*
X112820106Y-90989788D01*
X112820109Y-90989786D01*
X112880120Y-90907187D01*
X112945051Y-90817816D01*
X112949796Y-90808504D01*
X112965235Y-90778205D01*
X113013209Y-90727409D01*
X113075719Y-90710500D01*
X114378702Y-90710500D01*
X114445741Y-90730185D01*
X114474555Y-90755834D01*
X114478216Y-90760295D01*
X114589707Y-90871786D01*
X114589711Y-90871789D01*
X114720814Y-90959390D01*
X114720827Y-90959397D01*
X114802808Y-90993354D01*
X114866503Y-91019737D01*
X114986460Y-91043598D01*
X115021153Y-91050499D01*
X115021156Y-91050500D01*
X115021158Y-91050500D01*
X115178844Y-91050500D01*
X115178845Y-91050499D01*
X115333497Y-91019737D01*
X115479179Y-90959394D01*
X115610289Y-90871789D01*
X115721789Y-90760289D01*
X115809394Y-90629179D01*
X115809793Y-90628217D01*
X115822374Y-90597844D01*
X130100000Y-90597844D01*
X130106401Y-90657372D01*
X130106403Y-90657379D01*
X130156645Y-90792086D01*
X130156649Y-90792093D01*
X130242809Y-90907187D01*
X130242812Y-90907190D01*
X130357906Y-90993350D01*
X130357913Y-90993354D01*
X130492620Y-91043596D01*
X130492627Y-91043598D01*
X130552155Y-91049999D01*
X130552172Y-91050000D01*
X131450000Y-91050000D01*
X131950000Y-91050000D01*
X132847828Y-91050000D01*
X132847844Y-91049999D01*
X132907372Y-91043598D01*
X132907379Y-91043596D01*
X133042086Y-90993354D01*
X133042093Y-90993350D01*
X133157187Y-90907190D01*
X133157190Y-90907187D01*
X133243350Y-90792093D01*
X133243354Y-90792086D01*
X133293596Y-90657379D01*
X133293598Y-90657372D01*
X133299999Y-90597844D01*
X133300000Y-90597827D01*
X133300000Y-89900000D01*
X131950000Y-89900000D01*
X131950000Y-91050000D01*
X131450000Y-91050000D01*
X131450000Y-89900000D01*
X130100000Y-89900000D01*
X130100000Y-90597844D01*
X115822374Y-90597844D01*
X115869735Y-90483501D01*
X115869737Y-90483497D01*
X115900500Y-90328842D01*
X115900500Y-90171158D01*
X115900500Y-90171155D01*
X115900499Y-90171153D01*
X115888335Y-90110000D01*
X115869737Y-90016503D01*
X115828525Y-89917007D01*
X115819880Y-89896136D01*
X115819874Y-89896123D01*
X115809394Y-89870821D01*
X115809392Y-89870818D01*
X115809390Y-89870814D01*
X115721789Y-89739711D01*
X115721786Y-89739707D01*
X115610292Y-89628213D01*
X115610288Y-89628210D01*
X115479185Y-89540609D01*
X115479172Y-89540602D01*
X115333501Y-89480264D01*
X115333489Y-89480261D01*
X115178845Y-89449500D01*
X115178842Y-89449500D01*
X115021158Y-89449500D01*
X115021155Y-89449500D01*
X114866511Y-89480260D01*
X114866501Y-89480263D01*
X114818706Y-89500061D01*
X114771254Y-89509500D01*
X113075719Y-89509500D01*
X113008680Y-89489815D01*
X112965235Y-89441795D01*
X112945052Y-89402185D01*
X112945051Y-89402184D01*
X112820109Y-89230213D01*
X112669786Y-89079890D01*
X112497820Y-88954951D01*
X112497115Y-88954591D01*
X112489054Y-88950485D01*
X112438259Y-88902512D01*
X112421463Y-88834692D01*
X112443999Y-88768556D01*
X112489054Y-88729515D01*
X112497816Y-88725051D01*
X112519789Y-88709086D01*
X112669786Y-88600109D01*
X112669788Y-88600106D01*
X112669792Y-88600104D01*
X112820104Y-88449792D01*
X112820106Y-88449788D01*
X112820109Y-88449786D01*
X112945048Y-88277820D01*
X112945050Y-88277817D01*
X112945051Y-88277816D01*
X113041557Y-88088412D01*
X113107246Y-87886243D01*
X113140500Y-87676287D01*
X113140500Y-87463713D01*
X113107246Y-87253757D01*
X113041557Y-87051588D01*
X112945051Y-86862184D01*
X112945049Y-86862181D01*
X112945048Y-86862179D01*
X112820109Y-86690213D01*
X112669786Y-86539890D01*
X112648382Y-86524339D01*
X121846314Y-86524339D01*
X121846314Y-86682032D01*
X121877075Y-86836675D01*
X121877078Y-86836687D01*
X121937416Y-86982358D01*
X121937423Y-86982371D01*
X122025024Y-87113474D01*
X122025027Y-87113478D01*
X122136521Y-87224972D01*
X122136525Y-87224975D01*
X122267628Y-87312576D01*
X122267641Y-87312583D01*
X122413312Y-87372921D01*
X122413317Y-87372923D01*
X122567967Y-87403685D01*
X122567970Y-87403686D01*
X122567972Y-87403686D01*
X122725658Y-87403686D01*
X122725659Y-87403685D01*
X122880311Y-87372923D01*
X123025993Y-87312580D01*
X123157103Y-87224975D01*
X123165632Y-87216446D01*
X123250533Y-87131546D01*
X123277460Y-87116842D01*
X123303279Y-87100250D01*
X123309479Y-87099358D01*
X123311856Y-87098061D01*
X123338214Y-87095227D01*
X123432130Y-87095227D01*
X123499169Y-87114912D01*
X123519811Y-87131546D01*
X123652925Y-87264660D01*
X123686410Y-87325983D01*
X123686861Y-87328149D01*
X123717761Y-87483491D01*
X123717764Y-87483501D01*
X123778102Y-87629172D01*
X123778109Y-87629185D01*
X123865710Y-87760288D01*
X123865713Y-87760292D01*
X123977207Y-87871786D01*
X123977211Y-87871789D01*
X124108314Y-87959390D01*
X124108327Y-87959397D01*
X124181950Y-87989892D01*
X124254003Y-88019737D01*
X124408653Y-88050499D01*
X124408656Y-88050500D01*
X124408658Y-88050500D01*
X124566344Y-88050500D01*
X124566345Y-88050499D01*
X124720997Y-88019737D01*
X124866679Y-87959394D01*
X124997789Y-87871789D01*
X125109289Y-87760289D01*
X125196894Y-87629179D01*
X125257237Y-87483497D01*
X125288000Y-87328842D01*
X125288000Y-87171158D01*
X125288000Y-87171155D01*
X125287999Y-87171153D01*
X125276526Y-87113474D01*
X125257237Y-87016503D01*
X125228810Y-86947873D01*
X125196897Y-86870827D01*
X125196890Y-86870814D01*
X125109289Y-86739711D01*
X125109286Y-86739707D01*
X124997792Y-86628213D01*
X124997788Y-86628210D01*
X124866685Y-86540609D01*
X124866672Y-86540602D01*
X124721001Y-86480264D01*
X124720991Y-86480261D01*
X124565649Y-86449361D01*
X124503738Y-86416976D01*
X124502160Y-86415425D01*
X124219817Y-86133082D01*
X124219815Y-86133079D01*
X124100944Y-86014208D01*
X124100939Y-86014204D01*
X123994385Y-85952686D01*
X123994383Y-85952685D01*
X123964014Y-85935151D01*
X123964013Y-85935150D01*
X123964012Y-85935150D01*
X123811284Y-85894226D01*
X123653170Y-85894226D01*
X123645574Y-85894226D01*
X123645558Y-85894227D01*
X123051709Y-85894227D01*
X123004257Y-85884788D01*
X122880315Y-85833450D01*
X122880303Y-85833447D01*
X122725659Y-85802686D01*
X122725656Y-85802686D01*
X122567972Y-85802686D01*
X122567969Y-85802686D01*
X122413324Y-85833447D01*
X122413312Y-85833450D01*
X122267641Y-85893788D01*
X122267628Y-85893795D01*
X122136525Y-85981396D01*
X122136521Y-85981399D01*
X122025027Y-86092893D01*
X122025024Y-86092897D01*
X121937423Y-86224000D01*
X121937416Y-86224013D01*
X121877078Y-86369684D01*
X121877075Y-86369696D01*
X121846314Y-86524339D01*
X112648382Y-86524339D01*
X112497820Y-86414951D01*
X112497115Y-86414591D01*
X112489054Y-86410485D01*
X112438259Y-86362512D01*
X112421463Y-86294692D01*
X112443999Y-86228556D01*
X112489054Y-86189515D01*
X112497816Y-86185051D01*
X112575172Y-86128849D01*
X112669786Y-86060109D01*
X112669788Y-86060106D01*
X112669792Y-86060104D01*
X112820104Y-85909792D01*
X112820106Y-85909788D01*
X112820109Y-85909786D01*
X112945048Y-85737820D01*
X112945050Y-85737817D01*
X112945051Y-85737816D01*
X113041557Y-85548412D01*
X113107246Y-85346243D01*
X113140500Y-85136287D01*
X113140500Y-84923713D01*
X113107246Y-84713757D01*
X113041557Y-84511588D01*
X112945051Y-84322184D01*
X112945049Y-84322181D01*
X112945048Y-84322179D01*
X112820109Y-84150213D01*
X112669786Y-83999890D01*
X112497820Y-83874951D01*
X112497115Y-83874591D01*
X112489054Y-83870485D01*
X112438259Y-83822512D01*
X112421463Y-83754692D01*
X112443999Y-83688556D01*
X112489054Y-83649515D01*
X112497816Y-83645051D01*
X112596187Y-83573581D01*
X112669786Y-83520109D01*
X112669788Y-83520106D01*
X112669792Y-83520104D01*
X112820104Y-83369792D01*
X112820106Y-83369788D01*
X112820109Y-83369786D01*
X112943154Y-83200427D01*
X112945051Y-83197816D01*
X113041557Y-83008412D01*
X113107246Y-82806243D01*
X113140500Y-82596287D01*
X113140500Y-82383713D01*
X113107246Y-82173757D01*
X113041557Y-81971588D01*
X112945051Y-81782184D01*
X112945049Y-81782181D01*
X112945048Y-81782179D01*
X112820109Y-81610213D01*
X112669786Y-81459890D01*
X112497820Y-81334951D01*
X112497115Y-81334591D01*
X112489054Y-81330485D01*
X112438259Y-81282512D01*
X112421463Y-81214692D01*
X112443999Y-81148556D01*
X112489054Y-81109515D01*
X112497816Y-81105051D01*
X112619693Y-81016503D01*
X112669786Y-80980109D01*
X112669788Y-80980106D01*
X112669792Y-80980104D01*
X112820104Y-80829792D01*
X112820106Y-80829788D01*
X112820109Y-80829786D01*
X112945048Y-80657820D01*
X112945050Y-80657817D01*
X112945051Y-80657816D01*
X113041557Y-80468412D01*
X113107246Y-80266243D01*
X113140500Y-80056287D01*
X113140500Y-79921153D01*
X117599500Y-79921153D01*
X117599500Y-80078846D01*
X117630261Y-80233489D01*
X117630264Y-80233501D01*
X117690602Y-80379172D01*
X117690609Y-80379185D01*
X117778210Y-80510288D01*
X117778213Y-80510292D01*
X117889707Y-80621786D01*
X117889711Y-80621789D01*
X118020814Y-80709390D01*
X118020827Y-80709397D01*
X118099894Y-80742147D01*
X118166503Y-80769737D01*
X118321153Y-80800499D01*
X118321156Y-80800500D01*
X118321158Y-80800500D01*
X118478844Y-80800500D01*
X118478845Y-80800499D01*
X118633497Y-80769737D01*
X118779179Y-80709394D01*
X118795125Y-80698739D01*
X118910875Y-80621398D01*
X118939399Y-80612466D01*
X118967067Y-80601152D01*
X118977195Y-80600631D01*
X118977553Y-80600520D01*
X118978251Y-80600577D01*
X118979766Y-80600500D01*
X119113445Y-80600500D01*
X119180484Y-80620185D01*
X119226239Y-80672989D01*
X119236183Y-80742147D01*
X119231158Y-80760414D01*
X119232030Y-80760679D01*
X119230263Y-80766502D01*
X119229103Y-80772334D01*
X119225293Y-80779616D01*
X119224963Y-80787827D01*
X119209335Y-80810119D01*
X119196715Y-80834243D01*
X119195167Y-80835819D01*
X118385339Y-81645648D01*
X118324016Y-81679133D01*
X118321850Y-81679584D01*
X118166508Y-81710484D01*
X118166498Y-81710487D01*
X118020827Y-81770825D01*
X118020814Y-81770832D01*
X117889711Y-81858433D01*
X117889707Y-81858436D01*
X117778213Y-81969930D01*
X117778210Y-81969934D01*
X117690609Y-82101037D01*
X117690602Y-82101050D01*
X117630264Y-82246721D01*
X117630261Y-82246733D01*
X117599500Y-82401376D01*
X117599500Y-82559069D01*
X117630261Y-82713712D01*
X117630264Y-82713724D01*
X117690602Y-82859395D01*
X117690609Y-82859408D01*
X117778210Y-82990511D01*
X117778213Y-82990515D01*
X117860295Y-83072597D01*
X117893780Y-83133920D01*
X117894232Y-83184468D01*
X117885124Y-83230261D01*
X117883814Y-83236845D01*
X117883814Y-83394532D01*
X117914575Y-83549175D01*
X117914578Y-83549187D01*
X117974916Y-83694858D01*
X117974923Y-83694871D01*
X118062916Y-83826560D01*
X118068566Y-83844606D01*
X118078791Y-83860516D01*
X118083242Y-83891475D01*
X118083794Y-83893237D01*
X118083814Y-83895451D01*
X118083814Y-84097644D01*
X118083813Y-84097662D01*
X118083813Y-84263368D01*
X118083812Y-84263368D01*
X118120556Y-84400499D01*
X118124737Y-84416099D01*
X118139617Y-84441872D01*
X118139618Y-84441874D01*
X118139619Y-84441874D01*
X118184573Y-84519738D01*
X118203793Y-84553028D01*
X118203795Y-84553031D01*
X118322663Y-84671899D01*
X118322669Y-84671904D01*
X118665425Y-85014660D01*
X118698910Y-85075983D01*
X118699361Y-85078149D01*
X118730261Y-85233491D01*
X118730264Y-85233501D01*
X118790602Y-85379172D01*
X118790609Y-85379185D01*
X118878210Y-85510288D01*
X118878213Y-85510292D01*
X118989707Y-85621786D01*
X118989711Y-85621789D01*
X119120814Y-85709390D01*
X119120827Y-85709397D01*
X119266498Y-85769735D01*
X119266503Y-85769737D01*
X119421153Y-85800499D01*
X119421156Y-85800500D01*
X119421158Y-85800500D01*
X119578844Y-85800500D01*
X119578845Y-85800499D01*
X119733497Y-85769737D01*
X119879179Y-85709394D01*
X120010289Y-85621789D01*
X120121789Y-85510289D01*
X120209394Y-85379179D01*
X120269737Y-85233497D01*
X120300500Y-85078842D01*
X120300500Y-84921158D01*
X120300500Y-84921155D01*
X120300499Y-84921153D01*
X120291220Y-84874505D01*
X120269737Y-84766503D01*
X120259776Y-84742454D01*
X120209397Y-84620827D01*
X120209387Y-84620809D01*
X120160676Y-84547907D01*
X120139798Y-84481230D01*
X120149217Y-84431564D01*
X120162084Y-84400500D01*
X120204051Y-84299183D01*
X120234814Y-84144528D01*
X120234952Y-84143836D01*
X120267337Y-84081925D01*
X120268832Y-84080402D01*
X120902680Y-83446554D01*
X120921459Y-83431142D01*
X121010289Y-83371789D01*
X121121789Y-83260289D01*
X121209394Y-83129179D01*
X121215536Y-83114352D01*
X121230244Y-83078842D01*
X121269737Y-82983497D01*
X121300500Y-82828842D01*
X121300500Y-82671158D01*
X121300500Y-82671155D01*
X121300499Y-82671153D01*
X121269738Y-82516510D01*
X121269737Y-82516503D01*
X121269735Y-82516498D01*
X121209397Y-82370827D01*
X121209390Y-82370814D01*
X121121789Y-82239711D01*
X121121786Y-82239707D01*
X121010292Y-82128213D01*
X121010288Y-82128210D01*
X120934548Y-82077602D01*
X120889743Y-82023990D01*
X120881036Y-81954665D01*
X120911190Y-81891637D01*
X120970634Y-81854918D01*
X121003439Y-81850500D01*
X122670234Y-81850500D01*
X122737273Y-81870185D01*
X122739125Y-81871398D01*
X122870814Y-81959390D01*
X122870827Y-81959397D01*
X123016498Y-82019735D01*
X123016503Y-82019737D01*
X123171153Y-82050499D01*
X123171156Y-82050500D01*
X123171158Y-82050500D01*
X123328844Y-82050500D01*
X123328845Y-82050499D01*
X123483497Y-82019737D01*
X123596166Y-81973067D01*
X123629172Y-81959397D01*
X123629172Y-81959396D01*
X123629179Y-81959394D01*
X123730038Y-81892002D01*
X123756609Y-81874248D01*
X123823286Y-81853370D01*
X123890666Y-81871854D01*
X123937357Y-81923833D01*
X123949500Y-81977350D01*
X123949500Y-82498431D01*
X123929815Y-82565470D01*
X123913181Y-82586112D01*
X123336112Y-83163181D01*
X123274789Y-83196666D01*
X123248431Y-83199500D01*
X122671155Y-83199500D01*
X122516510Y-83230261D01*
X122516498Y-83230264D01*
X122370827Y-83290602D01*
X122370814Y-83290609D01*
X122239711Y-83378210D01*
X122239707Y-83378213D01*
X122128213Y-83489707D01*
X122128210Y-83489711D01*
X122040609Y-83620814D01*
X122040602Y-83620827D01*
X121980264Y-83766498D01*
X121980261Y-83766510D01*
X121949500Y-83921153D01*
X121949500Y-84078846D01*
X121980261Y-84233489D01*
X121980264Y-84233501D01*
X122040602Y-84379172D01*
X122040609Y-84379185D01*
X122128210Y-84510288D01*
X122128213Y-84510292D01*
X122239707Y-84621786D01*
X122239711Y-84621789D01*
X122370814Y-84709390D01*
X122370827Y-84709397D01*
X122508683Y-84766498D01*
X122516503Y-84769737D01*
X122660158Y-84798312D01*
X122671153Y-84800499D01*
X122671156Y-84800500D01*
X122671158Y-84800500D01*
X122828842Y-84800500D01*
X123242098Y-84800500D01*
X123309137Y-84820185D01*
X123354892Y-84872989D01*
X123363715Y-84900308D01*
X123380261Y-84983491D01*
X123380264Y-84983501D01*
X123440602Y-85129172D01*
X123440609Y-85129185D01*
X123528210Y-85260288D01*
X123528213Y-85260292D01*
X123639707Y-85371786D01*
X123639711Y-85371789D01*
X123770814Y-85459390D01*
X123770827Y-85459397D01*
X123900849Y-85513253D01*
X123916503Y-85519737D01*
X124059681Y-85548217D01*
X124071153Y-85550499D01*
X124071156Y-85550500D01*
X124071158Y-85550500D01*
X124228844Y-85550500D01*
X124228845Y-85550499D01*
X124383497Y-85519737D01*
X124529179Y-85459394D01*
X124660289Y-85371789D01*
X124771789Y-85260289D01*
X124859394Y-85129179D01*
X124919737Y-84983497D01*
X124941417Y-84874500D01*
X124973799Y-84812593D01*
X124975238Y-84811128D01*
X125185383Y-84600983D01*
X125246702Y-84567501D01*
X125316394Y-84572485D01*
X125372327Y-84614357D01*
X125378598Y-84623569D01*
X125427426Y-84702731D01*
X125547267Y-84822572D01*
X125547271Y-84822575D01*
X125691507Y-84911542D01*
X125691518Y-84911547D01*
X125852394Y-84964856D01*
X125859012Y-84966273D01*
X125858745Y-84967517D01*
X125916856Y-84991220D01*
X125957014Y-85048396D01*
X125961191Y-85112381D01*
X125949500Y-85171158D01*
X125949500Y-85328846D01*
X125980261Y-85483489D01*
X125980264Y-85483501D01*
X126029575Y-85602549D01*
X126037044Y-85672018D01*
X126029575Y-85697453D01*
X125980264Y-85816501D01*
X125980261Y-85816513D01*
X125949500Y-85971156D01*
X125949500Y-86128849D01*
X125968391Y-86223820D01*
X125962164Y-86293411D01*
X125949876Y-86316902D01*
X125860720Y-86450332D01*
X125860713Y-86450345D01*
X125800375Y-86596016D01*
X125800372Y-86596028D01*
X125769611Y-86750671D01*
X125769611Y-86908364D01*
X125790459Y-87013176D01*
X125784232Y-87082768D01*
X125771944Y-87106258D01*
X125688245Y-87231521D01*
X125688238Y-87231534D01*
X125627900Y-87377205D01*
X125627897Y-87377217D01*
X125597136Y-87531860D01*
X125597136Y-87689553D01*
X125627897Y-87844196D01*
X125627900Y-87844208D01*
X125688238Y-87989879D01*
X125688245Y-87989892D01*
X125775846Y-88120995D01*
X125775849Y-88120999D01*
X125887343Y-88232493D01*
X125887347Y-88232496D01*
X126023387Y-88323396D01*
X126068192Y-88377008D01*
X126076899Y-88446333D01*
X126057599Y-88495388D01*
X126040608Y-88520816D01*
X126040602Y-88520827D01*
X125980264Y-88666498D01*
X125980261Y-88666510D01*
X125949500Y-88821153D01*
X125949500Y-88978846D01*
X125980261Y-89133489D01*
X125980264Y-89133501D01*
X126040602Y-89279172D01*
X126040609Y-89279185D01*
X126128210Y-89410288D01*
X126128213Y-89410292D01*
X126239707Y-89521786D01*
X126239711Y-89521789D01*
X126370814Y-89609390D01*
X126370827Y-89609397D01*
X126516498Y-89669735D01*
X126516503Y-89669737D01*
X126671153Y-89700499D01*
X126671156Y-89700500D01*
X126671158Y-89700500D01*
X126828844Y-89700500D01*
X126828845Y-89700499D01*
X126983497Y-89669737D01*
X127129179Y-89609394D01*
X127260289Y-89521789D01*
X127371789Y-89410289D01*
X127459394Y-89279179D01*
X127462634Y-89271355D01*
X127506473Y-89216952D01*
X127515198Y-89211418D01*
X127568716Y-89180520D01*
X127680520Y-89068716D01*
X127759577Y-88931784D01*
X127800500Y-88779057D01*
X127800500Y-88702155D01*
X130100000Y-88702155D01*
X130100000Y-89400000D01*
X131450000Y-89400000D01*
X131950000Y-89400000D01*
X133300000Y-89400000D01*
X133300000Y-88702172D01*
X133299999Y-88702155D01*
X133293598Y-88642627D01*
X133293596Y-88642620D01*
X133243354Y-88507913D01*
X133243350Y-88507906D01*
X133157190Y-88392812D01*
X133157187Y-88392809D01*
X133042093Y-88306649D01*
X133042086Y-88306645D01*
X132907379Y-88256403D01*
X132907372Y-88256401D01*
X132847844Y-88250000D01*
X131950000Y-88250000D01*
X131950000Y-89400000D01*
X131450000Y-89400000D01*
X131450000Y-88250000D01*
X130552155Y-88250000D01*
X130492627Y-88256401D01*
X130492620Y-88256403D01*
X130357913Y-88306645D01*
X130357906Y-88306649D01*
X130242812Y-88392809D01*
X130242809Y-88392812D01*
X130156649Y-88507906D01*
X130156645Y-88507913D01*
X130106403Y-88642620D01*
X130106401Y-88642627D01*
X130100000Y-88702155D01*
X127800500Y-88702155D01*
X127800500Y-88524000D01*
X127820185Y-88456961D01*
X127872989Y-88411206D01*
X127924500Y-88400000D01*
X128300000Y-88400000D01*
X128300000Y-88024501D01*
X128302550Y-88015815D01*
X128301262Y-88006854D01*
X128312240Y-87982813D01*
X128319685Y-87957462D01*
X128326525Y-87951534D01*
X128330287Y-87943298D01*
X128352521Y-87929008D01*
X128372489Y-87911707D01*
X128383003Y-87909419D01*
X128389065Y-87905524D01*
X128424000Y-87900501D01*
X128476000Y-87900501D01*
X128543039Y-87920186D01*
X128588794Y-87972990D01*
X128600000Y-88024501D01*
X128600000Y-88400000D01*
X129147828Y-88400000D01*
X129147844Y-88399999D01*
X129207372Y-88393598D01*
X129207379Y-88393596D01*
X129342086Y-88343354D01*
X129342093Y-88343350D01*
X129457187Y-88257190D01*
X129457190Y-88257187D01*
X129543350Y-88142093D01*
X129543354Y-88142086D01*
X129593596Y-88007379D01*
X129593598Y-88007372D01*
X129599999Y-87947844D01*
X129600000Y-87947827D01*
X129600000Y-87900000D01*
X129598627Y-87900000D01*
X129585703Y-87896205D01*
X129572267Y-87897166D01*
X129552830Y-87886552D01*
X129531588Y-87880315D01*
X129522768Y-87870136D01*
X129510944Y-87863680D01*
X129500330Y-87844241D01*
X129485833Y-87827511D01*
X129483916Y-87814180D01*
X129477460Y-87802356D01*
X129479040Y-87780268D01*
X129475889Y-87758353D01*
X129481593Y-87744581D01*
X129482446Y-87732665D01*
X129499361Y-87701688D01*
X129508446Y-87689553D01*
X129538289Y-87649688D01*
X129586105Y-87613894D01*
X129600000Y-87600000D01*
X129600000Y-87552182D01*
X129599999Y-87552164D01*
X129596068Y-87515602D01*
X129596068Y-87489094D01*
X129600500Y-87447873D01*
X129600499Y-87052128D01*
X129600498Y-87052111D01*
X129596320Y-87013253D01*
X129596320Y-86986747D01*
X129600500Y-86947873D01*
X129600499Y-86552128D01*
X129600498Y-86552111D01*
X129596320Y-86513253D01*
X129596320Y-86486747D01*
X129600500Y-86447873D01*
X129600499Y-86052128D01*
X129600498Y-86052111D01*
X129596320Y-86013253D01*
X129596320Y-85986747D01*
X129600500Y-85947873D01*
X129600499Y-85552128D01*
X129600498Y-85552111D01*
X129596320Y-85513253D01*
X129596320Y-85486747D01*
X129600500Y-85447873D01*
X129600499Y-85052128D01*
X129594091Y-84992517D01*
X129543796Y-84857669D01*
X129517522Y-84822572D01*
X129500999Y-84800500D01*
X129499360Y-84798311D01*
X129474943Y-84732848D01*
X129489794Y-84664575D01*
X129539198Y-84615169D01*
X129598627Y-84600000D01*
X129600000Y-84600000D01*
X129615109Y-84584890D01*
X129619685Y-84569309D01*
X129672489Y-84523554D01*
X129741647Y-84513610D01*
X129760434Y-84518766D01*
X129760676Y-84517969D01*
X129766492Y-84519732D01*
X129766503Y-84519737D01*
X129871418Y-84540606D01*
X129921153Y-84550499D01*
X129921156Y-84550500D01*
X129921158Y-84550500D01*
X130078844Y-84550500D01*
X130078845Y-84550499D01*
X130233497Y-84519737D01*
X130379179Y-84459394D01*
X130510289Y-84371789D01*
X130621789Y-84260289D01*
X130709394Y-84129179D01*
X130769737Y-83983497D01*
X130800500Y-83828842D01*
X130800500Y-83671158D01*
X130800500Y-83671155D01*
X130800499Y-83671153D01*
X130787394Y-83605270D01*
X130769737Y-83516503D01*
X130769735Y-83516498D01*
X130709397Y-83370827D01*
X130709390Y-83370814D01*
X130621789Y-83239711D01*
X130621786Y-83239707D01*
X130582505Y-83200427D01*
X130549019Y-83139104D01*
X130548569Y-83088549D01*
X130550500Y-83078842D01*
X130550500Y-82921158D01*
X130550500Y-82921155D01*
X130550499Y-82921153D01*
X130538214Y-82859395D01*
X130519737Y-82766503D01*
X130519735Y-82766498D01*
X130459397Y-82620827D01*
X130459390Y-82620814D01*
X130371789Y-82489711D01*
X130371786Y-82489707D01*
X130260292Y-82378213D01*
X130260288Y-82378210D01*
X130129185Y-82290609D01*
X130129172Y-82290602D01*
X129983501Y-82230264D01*
X129983489Y-82230261D01*
X129828845Y-82199500D01*
X129828842Y-82199500D01*
X129724000Y-82199500D01*
X129656961Y-82179815D01*
X129611206Y-82127011D01*
X129600000Y-82075500D01*
X129600000Y-82052172D01*
X129599999Y-82052155D01*
X129593598Y-81992627D01*
X129593596Y-81992620D01*
X129543354Y-81857913D01*
X129543350Y-81857906D01*
X129457190Y-81742812D01*
X129457187Y-81742809D01*
X129342093Y-81656649D01*
X129342086Y-81656645D01*
X129207379Y-81606403D01*
X129207372Y-81606401D01*
X129147844Y-81600000D01*
X128600000Y-81600000D01*
X128600000Y-81975500D01*
X128597449Y-81984185D01*
X128598738Y-81993147D01*
X128587759Y-82017187D01*
X128580315Y-82042539D01*
X128573474Y-82048466D01*
X128569713Y-82056703D01*
X128547478Y-82070992D01*
X128527511Y-82088294D01*
X128516996Y-82090581D01*
X128510935Y-82094477D01*
X128476000Y-82099500D01*
X128424000Y-82099500D01*
X128356961Y-82079815D01*
X128311206Y-82027011D01*
X128300000Y-81975500D01*
X128300000Y-81600000D01*
X128224500Y-81600000D01*
X128157461Y-81580315D01*
X128111706Y-81527511D01*
X128100500Y-81476000D01*
X128100500Y-81297844D01*
X130100000Y-81297844D01*
X130106401Y-81357372D01*
X130106403Y-81357379D01*
X130156645Y-81492086D01*
X130156649Y-81492093D01*
X130242809Y-81607187D01*
X130242812Y-81607190D01*
X130357906Y-81693350D01*
X130357913Y-81693354D01*
X130492620Y-81743596D01*
X130492627Y-81743598D01*
X130552155Y-81749999D01*
X130552172Y-81750000D01*
X131450000Y-81750000D01*
X131950000Y-81750000D01*
X132847828Y-81750000D01*
X132847844Y-81749999D01*
X132907372Y-81743598D01*
X132907379Y-81743596D01*
X133042086Y-81693354D01*
X133042093Y-81693350D01*
X133157187Y-81607190D01*
X133157190Y-81607187D01*
X133243350Y-81492093D01*
X133243354Y-81492086D01*
X133293596Y-81357379D01*
X133293598Y-81357372D01*
X133299999Y-81297844D01*
X133300000Y-81297827D01*
X133300000Y-80600000D01*
X131950000Y-80600000D01*
X131950000Y-81750000D01*
X131450000Y-81750000D01*
X131450000Y-80600000D01*
X130100000Y-80600000D01*
X130100000Y-81297844D01*
X128100500Y-81297844D01*
X128100500Y-81221155D01*
X128100499Y-81221153D01*
X128080580Y-81121014D01*
X128069737Y-81066503D01*
X128069226Y-81065270D01*
X128009397Y-80920827D01*
X128009390Y-80920814D01*
X127921790Y-80789712D01*
X127874225Y-80742147D01*
X127810289Y-80678211D01*
X127642366Y-80510288D01*
X127510292Y-80378213D01*
X127510288Y-80378210D01*
X127379185Y-80290609D01*
X127379172Y-80290602D01*
X127233501Y-80230264D01*
X127233489Y-80230261D01*
X127078845Y-80199500D01*
X127078842Y-80199500D01*
X125328843Y-80199500D01*
X125171158Y-80199500D01*
X125171153Y-80199500D01*
X125016510Y-80230260D01*
X125016502Y-80230262D01*
X124870824Y-80290604D01*
X124870814Y-80290609D01*
X124739711Y-80378210D01*
X124739707Y-80378213D01*
X124452666Y-80665254D01*
X124391343Y-80698739D01*
X124321651Y-80693755D01*
X124265718Y-80651883D01*
X124241301Y-80586419D01*
X124250424Y-80530121D01*
X124269737Y-80483497D01*
X124300500Y-80328842D01*
X124300500Y-80171158D01*
X124300500Y-80171155D01*
X124300499Y-80171153D01*
X124282137Y-80078842D01*
X124269737Y-80016503D01*
X124242191Y-79950000D01*
X124209397Y-79870827D01*
X124209390Y-79870814D01*
X124121789Y-79739711D01*
X124121786Y-79739707D01*
X124010292Y-79628213D01*
X124010288Y-79628210D01*
X123879185Y-79540609D01*
X123879172Y-79540602D01*
X123813527Y-79513412D01*
X123733501Y-79480264D01*
X123733489Y-79480261D01*
X123578845Y-79449500D01*
X123578842Y-79449500D01*
X123421158Y-79449500D01*
X123421155Y-79449500D01*
X123266510Y-79480261D01*
X123266498Y-79480264D01*
X123120827Y-79540602D01*
X123120814Y-79540609D01*
X122989125Y-79628602D01*
X122922447Y-79649480D01*
X122920234Y-79649500D01*
X121050098Y-79649500D01*
X120983059Y-79629815D01*
X120962417Y-79613181D01*
X120868717Y-79519481D01*
X120868716Y-79519480D01*
X120781904Y-79469360D01*
X120781904Y-79469359D01*
X120781900Y-79469358D01*
X120731785Y-79440423D01*
X120588969Y-79402155D01*
X130100000Y-79402155D01*
X130100000Y-80100000D01*
X131450000Y-80100000D01*
X131950000Y-80100000D01*
X133300000Y-80100000D01*
X133300000Y-79402172D01*
X133299999Y-79402155D01*
X133293598Y-79342627D01*
X133293596Y-79342620D01*
X133243354Y-79207913D01*
X133243350Y-79207906D01*
X133157190Y-79092812D01*
X133157187Y-79092809D01*
X133042093Y-79006649D01*
X133042086Y-79006645D01*
X132907379Y-78956403D01*
X132907372Y-78956401D01*
X132847844Y-78950000D01*
X131950000Y-78950000D01*
X131950000Y-80100000D01*
X131450000Y-80100000D01*
X131450000Y-78950000D01*
X130552155Y-78950000D01*
X130492627Y-78956401D01*
X130492620Y-78956403D01*
X130357913Y-79006645D01*
X130357906Y-79006649D01*
X130242812Y-79092809D01*
X130242809Y-79092812D01*
X130156649Y-79207906D01*
X130156645Y-79207913D01*
X130106403Y-79342620D01*
X130106401Y-79342627D01*
X130100000Y-79402155D01*
X120588969Y-79402155D01*
X120579057Y-79399499D01*
X120420943Y-79399499D01*
X120413347Y-79399499D01*
X120413331Y-79399500D01*
X118979766Y-79399500D01*
X118912727Y-79379815D01*
X118910875Y-79378602D01*
X118779185Y-79290609D01*
X118779172Y-79290602D01*
X118633501Y-79230264D01*
X118633489Y-79230261D01*
X118478845Y-79199500D01*
X118478842Y-79199500D01*
X118321158Y-79199500D01*
X118321155Y-79199500D01*
X118166510Y-79230261D01*
X118166498Y-79230264D01*
X118020827Y-79290602D01*
X118020814Y-79290609D01*
X117889711Y-79378210D01*
X117889707Y-79378213D01*
X117778213Y-79489707D01*
X117778210Y-79489711D01*
X117690609Y-79620814D01*
X117690602Y-79620827D01*
X117630264Y-79766498D01*
X117630261Y-79766510D01*
X117599500Y-79921153D01*
X113140500Y-79921153D01*
X113140500Y-79843713D01*
X113107246Y-79633757D01*
X113041557Y-79431588D01*
X112945051Y-79242184D01*
X112945049Y-79242181D01*
X112945048Y-79242179D01*
X112820109Y-79070213D01*
X112669786Y-78919890D01*
X112497820Y-78794951D01*
X112497115Y-78794591D01*
X112489054Y-78790485D01*
X112438259Y-78742512D01*
X112421463Y-78674692D01*
X112443999Y-78608556D01*
X112489054Y-78569515D01*
X112497816Y-78565051D01*
X112527344Y-78543598D01*
X112669786Y-78440109D01*
X112669788Y-78440106D01*
X112669792Y-78440104D01*
X112820104Y-78289792D01*
X112820106Y-78289788D01*
X112820109Y-78289786D01*
X112942167Y-78121786D01*
X112945051Y-78117816D01*
X113041557Y-77928412D01*
X113107246Y-77726243D01*
X113140500Y-77516287D01*
X113140500Y-77421153D01*
X117599500Y-77421153D01*
X117599500Y-77578846D01*
X117630261Y-77733489D01*
X117630264Y-77733501D01*
X117690602Y-77879172D01*
X117690609Y-77879185D01*
X117778210Y-78010288D01*
X117778213Y-78010292D01*
X117889707Y-78121786D01*
X117889711Y-78121789D01*
X118020814Y-78209390D01*
X118020827Y-78209397D01*
X118166498Y-78269735D01*
X118166503Y-78269737D01*
X118321153Y-78300499D01*
X118321156Y-78300500D01*
X118321158Y-78300500D01*
X118478844Y-78300500D01*
X118478845Y-78300499D01*
X118633497Y-78269737D01*
X118779179Y-78209394D01*
X118857025Y-78157379D01*
X118910875Y-78121398D01*
X118977553Y-78100520D01*
X118979766Y-78100500D01*
X119420234Y-78100500D01*
X119487273Y-78120185D01*
X119489125Y-78121398D01*
X119620814Y-78209390D01*
X119620827Y-78209397D01*
X119766498Y-78269735D01*
X119766503Y-78269737D01*
X119921153Y-78300499D01*
X119921156Y-78300500D01*
X119921158Y-78300500D01*
X120078844Y-78300500D01*
X120078845Y-78300499D01*
X120233497Y-78269737D01*
X120379179Y-78209394D01*
X120510289Y-78121789D01*
X120621789Y-78010289D01*
X120709394Y-77879179D01*
X120769737Y-77733497D01*
X120800500Y-77578842D01*
X120800500Y-77421158D01*
X120800500Y-77421155D01*
X120800499Y-77421153D01*
X120769737Y-77266503D01*
X120769735Y-77266498D01*
X120709397Y-77120827D01*
X120709390Y-77120814D01*
X120621789Y-76989711D01*
X120621786Y-76989707D01*
X120510292Y-76878213D01*
X120510288Y-76878210D01*
X120379185Y-76790609D01*
X120379172Y-76790602D01*
X120233501Y-76730264D01*
X120233489Y-76730261D01*
X120078845Y-76699500D01*
X120078842Y-76699500D01*
X119921158Y-76699500D01*
X119921155Y-76699500D01*
X119766510Y-76730261D01*
X119766498Y-76730264D01*
X119620827Y-76790602D01*
X119620814Y-76790609D01*
X119489125Y-76878602D01*
X119422447Y-76899480D01*
X119420234Y-76899500D01*
X118979766Y-76899500D01*
X118912727Y-76879815D01*
X118910875Y-76878602D01*
X118779185Y-76790609D01*
X118779172Y-76790602D01*
X118633501Y-76730264D01*
X118633489Y-76730261D01*
X118478845Y-76699500D01*
X118478842Y-76699500D01*
X118321158Y-76699500D01*
X118321155Y-76699500D01*
X118166510Y-76730261D01*
X118166498Y-76730264D01*
X118020827Y-76790602D01*
X118020814Y-76790609D01*
X117889711Y-76878210D01*
X117889707Y-76878213D01*
X117778213Y-76989707D01*
X117778210Y-76989711D01*
X117690609Y-77120814D01*
X117690602Y-77120827D01*
X117630264Y-77266498D01*
X117630261Y-77266510D01*
X117599500Y-77421153D01*
X113140500Y-77421153D01*
X113140500Y-77303713D01*
X113107246Y-77093757D01*
X113041557Y-76891588D01*
X112945051Y-76702184D01*
X112945049Y-76702181D01*
X112945048Y-76702179D01*
X112820109Y-76530213D01*
X112669786Y-76379890D01*
X112497820Y-76254951D01*
X112497115Y-76254591D01*
X112489054Y-76250485D01*
X112438259Y-76202512D01*
X112421463Y-76134692D01*
X112443999Y-76068556D01*
X112489054Y-76029515D01*
X112497816Y-76025051D01*
X112625950Y-75931957D01*
X112669786Y-75900109D01*
X112669788Y-75900106D01*
X112669792Y-75900104D01*
X112820104Y-75749792D01*
X112820106Y-75749788D01*
X112820109Y-75749786D01*
X112945048Y-75577820D01*
X112945050Y-75577817D01*
X112945051Y-75577816D01*
X113041557Y-75388412D01*
X113107246Y-75186243D01*
X113140500Y-74976287D01*
X113140500Y-74763713D01*
X113125840Y-74671153D01*
X117599500Y-74671153D01*
X117599500Y-74828846D01*
X117630261Y-74983489D01*
X117630264Y-74983501D01*
X117690602Y-75129172D01*
X117690609Y-75129185D01*
X117778210Y-75260288D01*
X117778213Y-75260292D01*
X117889707Y-75371786D01*
X117889711Y-75371789D01*
X118020814Y-75459390D01*
X118020827Y-75459397D01*
X118161607Y-75517709D01*
X118166503Y-75519737D01*
X118321153Y-75550499D01*
X118321156Y-75550500D01*
X118321158Y-75550500D01*
X118478844Y-75550500D01*
X118478845Y-75550499D01*
X118633497Y-75519737D01*
X118779179Y-75459394D01*
X118853975Y-75409417D01*
X118910875Y-75371398D01*
X118977553Y-75350520D01*
X118979766Y-75350500D01*
X119420234Y-75350500D01*
X119487273Y-75370185D01*
X119489125Y-75371398D01*
X119620814Y-75459390D01*
X119620827Y-75459397D01*
X119761607Y-75517709D01*
X119766503Y-75519737D01*
X119921153Y-75550499D01*
X119921156Y-75550500D01*
X119921158Y-75550500D01*
X120078844Y-75550500D01*
X120078845Y-75550499D01*
X120233497Y-75519737D01*
X120379179Y-75459394D01*
X120510289Y-75371789D01*
X120621789Y-75260289D01*
X120709394Y-75129179D01*
X120769737Y-74983497D01*
X120800500Y-74828842D01*
X120800500Y-74671158D01*
X120800500Y-74671155D01*
X120800499Y-74671153D01*
X122949500Y-74671153D01*
X122949500Y-74828846D01*
X122980261Y-74983489D01*
X122980264Y-74983501D01*
X123040602Y-75129172D01*
X123040609Y-75129185D01*
X123128210Y-75260288D01*
X123128213Y-75260292D01*
X123239707Y-75371786D01*
X123239711Y-75371789D01*
X123370814Y-75459390D01*
X123370827Y-75459397D01*
X123511607Y-75517709D01*
X123516503Y-75519737D01*
X123581147Y-75532595D01*
X123671849Y-75550638D01*
X123733760Y-75583023D01*
X123735339Y-75584574D01*
X125347209Y-77196444D01*
X125380694Y-77257767D01*
X125381146Y-77308315D01*
X125374014Y-77344174D01*
X125373765Y-77345424D01*
X125373765Y-77503111D01*
X125404526Y-77657754D01*
X125404529Y-77657766D01*
X125464867Y-77803437D01*
X125464874Y-77803450D01*
X125552475Y-77934553D01*
X125552478Y-77934557D01*
X125663972Y-78046051D01*
X125663976Y-78046054D01*
X125795079Y-78133655D01*
X125795092Y-78133662D01*
X125940763Y-78194000D01*
X125940768Y-78194002D01*
X126095418Y-78224764D01*
X126095421Y-78224765D01*
X126095423Y-78224765D01*
X126253109Y-78224765D01*
X126253110Y-78224764D01*
X126407762Y-78194002D01*
X126553444Y-78133659D01*
X126607045Y-78097844D01*
X130150000Y-78097844D01*
X130156401Y-78157372D01*
X130156403Y-78157379D01*
X130206645Y-78292086D01*
X130206649Y-78292093D01*
X130292809Y-78407187D01*
X130292812Y-78407190D01*
X130407906Y-78493350D01*
X130407913Y-78493354D01*
X130542620Y-78543596D01*
X130542627Y-78543598D01*
X130602155Y-78549999D01*
X130602172Y-78550000D01*
X131500000Y-78550000D01*
X132000000Y-78550000D01*
X132897828Y-78550000D01*
X132897844Y-78549999D01*
X132957372Y-78543598D01*
X132957379Y-78543596D01*
X133092086Y-78493354D01*
X133092093Y-78493350D01*
X133207187Y-78407190D01*
X133207190Y-78407187D01*
X133293350Y-78292093D01*
X133293354Y-78292086D01*
X133343596Y-78157379D01*
X133343598Y-78157372D01*
X133349999Y-78097844D01*
X133350000Y-78097827D01*
X133350000Y-77400000D01*
X132000000Y-77400000D01*
X132000000Y-78550000D01*
X131500000Y-78550000D01*
X131500000Y-77400000D01*
X130150000Y-77400000D01*
X130150000Y-78097844D01*
X126607045Y-78097844D01*
X126684554Y-78046054D01*
X126796054Y-77934554D01*
X126883659Y-77803444D01*
X126944002Y-77657762D01*
X126974765Y-77503107D01*
X126974765Y-77345423D01*
X126974765Y-77345420D01*
X126974764Y-77345418D01*
X126957329Y-77257767D01*
X126944002Y-77190768D01*
X126915032Y-77120827D01*
X126883662Y-77045092D01*
X126883660Y-77045088D01*
X126883659Y-77045086D01*
X126836076Y-76973873D01*
X126815198Y-76907196D01*
X126833682Y-76839816D01*
X126885661Y-76793125D01*
X126914987Y-76783365D01*
X126943501Y-76777692D01*
X126983497Y-76769737D01*
X127129179Y-76709394D01*
X127260289Y-76621789D01*
X127371789Y-76510289D01*
X127459394Y-76379179D01*
X127519737Y-76233497D01*
X127525971Y-76202155D01*
X130150000Y-76202155D01*
X130150000Y-76900000D01*
X131500000Y-76900000D01*
X132000000Y-76900000D01*
X133350000Y-76900000D01*
X133350000Y-76202172D01*
X133349999Y-76202155D01*
X133343598Y-76142627D01*
X133343596Y-76142620D01*
X133293354Y-76007913D01*
X133293350Y-76007906D01*
X133207190Y-75892812D01*
X133207187Y-75892809D01*
X133092093Y-75806649D01*
X133092086Y-75806645D01*
X132957379Y-75756403D01*
X132957372Y-75756401D01*
X132897844Y-75750000D01*
X132000000Y-75750000D01*
X132000000Y-76900000D01*
X131500000Y-76900000D01*
X131500000Y-75750000D01*
X130602155Y-75750000D01*
X130542627Y-75756401D01*
X130542620Y-75756403D01*
X130407913Y-75806645D01*
X130407906Y-75806649D01*
X130292812Y-75892809D01*
X130292809Y-75892812D01*
X130206649Y-76007906D01*
X130206645Y-76007913D01*
X130156403Y-76142620D01*
X130156401Y-76142627D01*
X130150000Y-76202155D01*
X127525971Y-76202155D01*
X127550500Y-76078842D01*
X127550500Y-76078835D01*
X127550636Y-76078152D01*
X127583021Y-76016240D01*
X127584521Y-76014713D01*
X127667278Y-75931956D01*
X127728600Y-75898472D01*
X127768216Y-75896349D01*
X127802160Y-75899999D01*
X127802172Y-75900000D01*
X128350000Y-75900000D01*
X128350000Y-75524499D01*
X128352550Y-75515813D01*
X128351262Y-75506852D01*
X128362240Y-75482811D01*
X128369685Y-75457460D01*
X128376525Y-75451532D01*
X128380287Y-75443296D01*
X128402521Y-75429006D01*
X128422489Y-75411705D01*
X128433003Y-75409417D01*
X128439065Y-75405522D01*
X128474000Y-75400499D01*
X128526000Y-75400499D01*
X128593039Y-75420184D01*
X128638794Y-75472988D01*
X128650000Y-75524499D01*
X128650000Y-75900000D01*
X129197828Y-75900000D01*
X129197844Y-75899999D01*
X129257372Y-75893598D01*
X129257379Y-75893596D01*
X129392086Y-75843354D01*
X129392093Y-75843350D01*
X129507187Y-75757190D01*
X129507190Y-75757187D01*
X129593350Y-75642093D01*
X129593354Y-75642086D01*
X129643596Y-75507379D01*
X129643598Y-75507372D01*
X129649999Y-75447844D01*
X129650000Y-75447827D01*
X129650000Y-75400000D01*
X129648627Y-75400000D01*
X129635703Y-75396205D01*
X129622267Y-75397166D01*
X129602830Y-75386552D01*
X129581588Y-75380315D01*
X129572768Y-75370136D01*
X129560944Y-75363680D01*
X129550330Y-75344241D01*
X129535833Y-75327511D01*
X129533916Y-75314180D01*
X129527460Y-75302356D01*
X129529040Y-75280268D01*
X129525889Y-75258353D01*
X129531593Y-75244581D01*
X129532446Y-75232665D01*
X129549361Y-75201688D01*
X129588289Y-75149688D01*
X129636105Y-75113894D01*
X129650000Y-75100000D01*
X129650000Y-75052182D01*
X129649999Y-75052164D01*
X129646068Y-75015602D01*
X129646068Y-74989094D01*
X129650500Y-74947873D01*
X129650499Y-74552128D01*
X129650498Y-74552111D01*
X129646320Y-74513253D01*
X129646320Y-74486747D01*
X129650500Y-74447873D01*
X129650499Y-74052128D01*
X129650498Y-74052111D01*
X129646320Y-74013253D01*
X129646320Y-73986747D01*
X129650500Y-73947873D01*
X129650499Y-73552128D01*
X129650498Y-73552111D01*
X129646320Y-73513253D01*
X129646320Y-73486747D01*
X129650500Y-73447873D01*
X129650499Y-73052128D01*
X129650498Y-73052111D01*
X129646320Y-73013253D01*
X129646320Y-72986747D01*
X129650500Y-72947873D01*
X129650499Y-72552128D01*
X129644091Y-72492517D01*
X129593796Y-72357669D01*
X129573082Y-72329999D01*
X129549361Y-72298312D01*
X129524943Y-72232848D01*
X129539794Y-72164575D01*
X129589198Y-72115169D01*
X129648627Y-72100000D01*
X129650000Y-72100000D01*
X129650000Y-72052179D01*
X129649999Y-72052168D01*
X129645815Y-72013258D01*
X129645815Y-71986742D01*
X129649999Y-71947831D01*
X129650000Y-71947821D01*
X129650000Y-71900000D01*
X129648627Y-71900000D01*
X129635703Y-71896205D01*
X129622267Y-71897166D01*
X129602830Y-71886552D01*
X129581588Y-71880315D01*
X129572768Y-71870136D01*
X129560944Y-71863680D01*
X129550330Y-71844241D01*
X129535833Y-71827511D01*
X129533916Y-71814180D01*
X129527460Y-71802356D01*
X129529040Y-71780268D01*
X129525889Y-71758353D01*
X129531593Y-71744581D01*
X129532446Y-71732665D01*
X129549361Y-71701688D01*
X129588289Y-71649688D01*
X129636105Y-71613894D01*
X129650000Y-71600000D01*
X129650000Y-71552182D01*
X129649999Y-71552164D01*
X129646068Y-71515602D01*
X129646068Y-71489094D01*
X129650500Y-71447873D01*
X129650499Y-71052128D01*
X129650498Y-71052111D01*
X129646320Y-71013253D01*
X129646320Y-70986747D01*
X129650500Y-70947873D01*
X129650499Y-70552128D01*
X129650498Y-70552111D01*
X129646320Y-70513253D01*
X129646320Y-70486747D01*
X129650500Y-70447873D01*
X129650499Y-70052128D01*
X129644091Y-69992517D01*
X129593796Y-69857669D01*
X129549360Y-69798311D01*
X129524943Y-69732848D01*
X129539794Y-69664575D01*
X129589198Y-69615169D01*
X129648627Y-69600000D01*
X129650000Y-69600000D01*
X129650000Y-69552172D01*
X129649999Y-69552155D01*
X129643598Y-69492627D01*
X129643596Y-69492620D01*
X129593354Y-69357913D01*
X129593350Y-69357906D01*
X129507190Y-69242812D01*
X129507187Y-69242809D01*
X129392093Y-69156649D01*
X129392086Y-69156645D01*
X129257379Y-69106403D01*
X129257372Y-69106401D01*
X129197844Y-69100000D01*
X128650000Y-69100000D01*
X128650000Y-69475500D01*
X128647449Y-69484185D01*
X128648738Y-69493147D01*
X128637759Y-69517187D01*
X128630315Y-69542539D01*
X128623474Y-69548466D01*
X128619713Y-69556703D01*
X128597478Y-69570992D01*
X128577511Y-69588294D01*
X128566996Y-69590581D01*
X128560935Y-69594477D01*
X128526000Y-69599500D01*
X128474000Y-69599500D01*
X128406961Y-69579815D01*
X128361206Y-69527011D01*
X128350000Y-69475500D01*
X128350000Y-69100000D01*
X128155963Y-69100000D01*
X128088924Y-69080315D01*
X128052861Y-69044891D01*
X127991026Y-68952350D01*
X127991023Y-68952346D01*
X127879529Y-68840852D01*
X127879525Y-68840849D01*
X127815164Y-68797844D01*
X130150000Y-68797844D01*
X130156401Y-68857372D01*
X130156403Y-68857379D01*
X130206645Y-68992086D01*
X130206649Y-68992093D01*
X130292809Y-69107187D01*
X130292812Y-69107190D01*
X130407906Y-69193350D01*
X130407913Y-69193354D01*
X130542620Y-69243596D01*
X130542627Y-69243598D01*
X130602155Y-69249999D01*
X130602172Y-69250000D01*
X131500000Y-69250000D01*
X132000000Y-69250000D01*
X132897828Y-69250000D01*
X132897844Y-69249999D01*
X132957372Y-69243598D01*
X132957379Y-69243596D01*
X133092086Y-69193354D01*
X133092093Y-69193350D01*
X133207187Y-69107190D01*
X133207190Y-69107187D01*
X133293350Y-68992093D01*
X133293354Y-68992086D01*
X133343596Y-68857379D01*
X133343598Y-68857372D01*
X133349999Y-68797844D01*
X133350000Y-68797827D01*
X133350000Y-68100000D01*
X132000000Y-68100000D01*
X132000000Y-69250000D01*
X131500000Y-69250000D01*
X131500000Y-68100000D01*
X130150000Y-68100000D01*
X130150000Y-68797844D01*
X127815164Y-68797844D01*
X127748422Y-68753248D01*
X127748409Y-68753241D01*
X127622597Y-68701129D01*
X127568193Y-68657288D01*
X127548432Y-68610759D01*
X127519738Y-68466510D01*
X127519737Y-68466503D01*
X127496132Y-68409514D01*
X127459397Y-68320827D01*
X127459390Y-68320814D01*
X127371789Y-68189711D01*
X127371786Y-68189707D01*
X127260292Y-68078213D01*
X127260288Y-68078210D01*
X127129185Y-67990609D01*
X127129172Y-67990602D01*
X126983501Y-67930264D01*
X126983489Y-67930261D01*
X126828845Y-67899500D01*
X126828842Y-67899500D01*
X126671158Y-67899500D01*
X126671155Y-67899500D01*
X126516510Y-67930261D01*
X126516498Y-67930264D01*
X126422452Y-67969219D01*
X126352982Y-67976688D01*
X126327548Y-67969219D01*
X126233501Y-67930264D01*
X126233489Y-67930261D01*
X126078845Y-67899500D01*
X126078842Y-67899500D01*
X125921158Y-67899500D01*
X125921155Y-67899500D01*
X125766510Y-67930261D01*
X125766498Y-67930264D01*
X125672452Y-67969219D01*
X125602982Y-67976688D01*
X125577548Y-67969219D01*
X125483501Y-67930264D01*
X125483489Y-67930261D01*
X125328845Y-67899500D01*
X125328842Y-67899500D01*
X125171158Y-67899500D01*
X125171155Y-67899500D01*
X125016510Y-67930261D01*
X125016498Y-67930264D01*
X124922452Y-67969219D01*
X124852982Y-67976688D01*
X124827548Y-67969219D01*
X124733501Y-67930264D01*
X124733489Y-67930261D01*
X124578845Y-67899500D01*
X124578842Y-67899500D01*
X124421158Y-67899500D01*
X124421155Y-67899500D01*
X124266510Y-67930261D01*
X124266498Y-67930264D01*
X124120827Y-67990602D01*
X124120814Y-67990609D01*
X123989711Y-68078210D01*
X123989707Y-68078213D01*
X123878213Y-68189707D01*
X123878210Y-68189711D01*
X123790609Y-68320814D01*
X123790602Y-68320827D01*
X123730264Y-68466498D01*
X123730261Y-68466510D01*
X123699500Y-68621153D01*
X123699500Y-68778846D01*
X123730261Y-68933489D01*
X123730264Y-68933501D01*
X123790602Y-69079172D01*
X123790609Y-69079185D01*
X123878210Y-69210288D01*
X123878213Y-69210292D01*
X123989707Y-69321786D01*
X123989711Y-69321789D01*
X124120814Y-69409390D01*
X124120827Y-69409397D01*
X124266498Y-69469735D01*
X124266503Y-69469737D01*
X124331147Y-69482595D01*
X124421849Y-69500638D01*
X124483760Y-69533023D01*
X124485339Y-69534574D01*
X125257020Y-70306255D01*
X125287044Y-70354931D01*
X125317842Y-70447873D01*
X125337996Y-70508694D01*
X125338001Y-70508705D01*
X125427029Y-70653040D01*
X125427032Y-70653044D01*
X125436660Y-70662672D01*
X125470145Y-70723995D01*
X125465161Y-70793687D01*
X125436663Y-70838031D01*
X125427428Y-70847265D01*
X125427424Y-70847271D01*
X125338457Y-70991507D01*
X125338452Y-70991518D01*
X125285144Y-71152393D01*
X125275000Y-71251677D01*
X125275000Y-71275000D01*
X126126000Y-71275000D01*
X126193039Y-71294685D01*
X126238794Y-71347489D01*
X126250000Y-71399000D01*
X126250000Y-71651000D01*
X126230315Y-71718039D01*
X126177511Y-71763794D01*
X126126000Y-71775000D01*
X125275001Y-71775000D01*
X125275001Y-71798312D01*
X125285144Y-71897607D01*
X125338452Y-72058481D01*
X125338457Y-72058492D01*
X125427424Y-72202728D01*
X125427427Y-72202732D01*
X125547267Y-72322572D01*
X125547271Y-72322575D01*
X125691507Y-72411542D01*
X125691518Y-72411547D01*
X125852394Y-72464856D01*
X125859012Y-72466273D01*
X125858745Y-72467517D01*
X125916856Y-72491220D01*
X125957014Y-72548396D01*
X125961191Y-72612381D01*
X125949500Y-72671158D01*
X125949500Y-72828846D01*
X125980261Y-72983489D01*
X125980264Y-72983501D01*
X126029575Y-73102549D01*
X126037044Y-73172018D01*
X126029575Y-73197453D01*
X125980264Y-73316501D01*
X125980261Y-73316513D01*
X125949500Y-73471156D01*
X125949500Y-73628849D01*
X125980261Y-73783492D01*
X125980264Y-73783504D01*
X126029575Y-73902552D01*
X126037044Y-73972021D01*
X126029575Y-73997456D01*
X125980264Y-74116504D01*
X125980261Y-74116516D01*
X125949500Y-74271159D01*
X125949500Y-74428852D01*
X125980261Y-74583495D01*
X125980264Y-74583507D01*
X126029575Y-74702555D01*
X126037044Y-74772024D01*
X126029575Y-74797459D01*
X125980264Y-74916507D01*
X125980261Y-74916519D01*
X125949500Y-75071162D01*
X125949500Y-75228855D01*
X125980261Y-75383498D01*
X125980264Y-75383510D01*
X126039928Y-75527552D01*
X126047397Y-75597021D01*
X126039928Y-75622456D01*
X125980264Y-75766498D01*
X125980261Y-75766508D01*
X125965042Y-75843020D01*
X125932657Y-75904931D01*
X125871941Y-75939505D01*
X125802171Y-75935764D01*
X125755744Y-75906509D01*
X124584574Y-74735339D01*
X124551089Y-74674016D01*
X124550638Y-74671849D01*
X124527170Y-74553872D01*
X124519737Y-74516503D01*
X124483431Y-74428852D01*
X124459397Y-74370827D01*
X124459390Y-74370814D01*
X124371789Y-74239711D01*
X124371786Y-74239707D01*
X124260292Y-74128213D01*
X124260288Y-74128210D01*
X124129185Y-74040609D01*
X124129172Y-74040602D01*
X123983501Y-73980264D01*
X123983489Y-73980261D01*
X123828845Y-73949500D01*
X123828842Y-73949500D01*
X123671158Y-73949500D01*
X123671155Y-73949500D01*
X123516510Y-73980261D01*
X123516498Y-73980264D01*
X123370827Y-74040602D01*
X123370814Y-74040609D01*
X123239711Y-74128210D01*
X123239707Y-74128213D01*
X123128213Y-74239707D01*
X123128210Y-74239711D01*
X123040609Y-74370814D01*
X123040602Y-74370827D01*
X122980264Y-74516498D01*
X122980261Y-74516510D01*
X122949500Y-74671153D01*
X120800499Y-74671153D01*
X120783064Y-74583503D01*
X120769737Y-74516503D01*
X120733431Y-74428852D01*
X120709397Y-74370827D01*
X120709390Y-74370814D01*
X120621789Y-74239711D01*
X120621786Y-74239707D01*
X120510292Y-74128213D01*
X120510288Y-74128210D01*
X120379185Y-74040609D01*
X120379172Y-74040602D01*
X120233501Y-73980264D01*
X120233489Y-73980261D01*
X120078845Y-73949500D01*
X120078842Y-73949500D01*
X119921158Y-73949500D01*
X119921155Y-73949500D01*
X119766510Y-73980261D01*
X119766498Y-73980264D01*
X119620827Y-74040602D01*
X119620814Y-74040609D01*
X119489125Y-74128602D01*
X119422447Y-74149480D01*
X119420234Y-74149500D01*
X118979766Y-74149500D01*
X118912727Y-74129815D01*
X118910875Y-74128602D01*
X118779185Y-74040609D01*
X118779172Y-74040602D01*
X118633501Y-73980264D01*
X118633489Y-73980261D01*
X118478845Y-73949500D01*
X118478842Y-73949500D01*
X118321158Y-73949500D01*
X118321155Y-73949500D01*
X118166510Y-73980261D01*
X118166498Y-73980264D01*
X118020827Y-74040602D01*
X118020814Y-74040609D01*
X117889711Y-74128210D01*
X117889707Y-74128213D01*
X117778213Y-74239707D01*
X117778210Y-74239711D01*
X117690609Y-74370814D01*
X117690602Y-74370827D01*
X117630264Y-74516498D01*
X117630261Y-74516510D01*
X117599500Y-74671153D01*
X113125840Y-74671153D01*
X113107246Y-74553757D01*
X113041557Y-74351588D01*
X112945051Y-74162184D01*
X112945049Y-74162181D01*
X112945048Y-74162179D01*
X112820109Y-73990213D01*
X112669786Y-73839890D01*
X112497820Y-73714951D01*
X112497115Y-73714591D01*
X112489054Y-73710485D01*
X112438259Y-73662512D01*
X112421463Y-73594692D01*
X112443999Y-73528556D01*
X112489054Y-73489515D01*
X112497816Y-73485051D01*
X112519789Y-73469086D01*
X112669786Y-73360109D01*
X112669788Y-73360106D01*
X112669792Y-73360104D01*
X112820104Y-73209792D01*
X112820106Y-73209788D01*
X112820109Y-73209786D01*
X112945048Y-73037820D01*
X112945050Y-73037817D01*
X112945051Y-73037816D01*
X113041557Y-72848412D01*
X113107246Y-72646243D01*
X113140500Y-72436287D01*
X113140500Y-72223713D01*
X113107246Y-72013757D01*
X113041557Y-71811588D01*
X112945051Y-71622184D01*
X112945049Y-71622181D01*
X112945048Y-71622179D01*
X112820109Y-71450213D01*
X112669786Y-71299890D01*
X112497820Y-71174951D01*
X112497115Y-71174591D01*
X112489054Y-71170485D01*
X112438259Y-71122512D01*
X112421463Y-71054692D01*
X112443999Y-70988556D01*
X112489054Y-70949515D01*
X112497816Y-70945051D01*
X112632408Y-70847265D01*
X112669786Y-70820109D01*
X112669788Y-70820106D01*
X112669792Y-70820104D01*
X112820104Y-70669792D01*
X112820106Y-70669788D01*
X112820109Y-70669786D01*
X112937140Y-70508705D01*
X112945051Y-70497816D01*
X113041557Y-70308412D01*
X113107246Y-70106243D01*
X113140500Y-69896287D01*
X113140500Y-69683713D01*
X113107246Y-69473757D01*
X113041557Y-69271588D01*
X112945051Y-69082184D01*
X112945049Y-69082181D01*
X112945048Y-69082179D01*
X112820109Y-68910213D01*
X112706569Y-68796673D01*
X112673084Y-68735350D01*
X112678068Y-68665658D01*
X112719940Y-68609725D01*
X112750915Y-68592810D01*
X112882331Y-68543796D01*
X112997546Y-68457546D01*
X113083796Y-68342331D01*
X113134091Y-68207483D01*
X113140500Y-68147873D01*
X113140499Y-66902155D01*
X130150000Y-66902155D01*
X130150000Y-67600000D01*
X131500000Y-67600000D01*
X132000000Y-67600000D01*
X133350000Y-67600000D01*
X133350000Y-66902172D01*
X133349999Y-66902155D01*
X133343598Y-66842627D01*
X133343596Y-66842620D01*
X133293354Y-66707913D01*
X133293350Y-66707906D01*
X133207190Y-66592812D01*
X133207187Y-66592809D01*
X133092093Y-66506649D01*
X133092086Y-66506645D01*
X132957379Y-66456403D01*
X132957372Y-66456401D01*
X132897844Y-66450000D01*
X132000000Y-66450000D01*
X132000000Y-67600000D01*
X131500000Y-67600000D01*
X131500000Y-66450000D01*
X130602155Y-66450000D01*
X130542627Y-66456401D01*
X130542620Y-66456403D01*
X130407913Y-66506645D01*
X130407906Y-66506649D01*
X130292812Y-66592809D01*
X130292809Y-66592812D01*
X130206649Y-66707906D01*
X130206645Y-66707913D01*
X130156403Y-66842620D01*
X130156401Y-66842627D01*
X130150000Y-66902155D01*
X113140499Y-66902155D01*
X113140499Y-66352128D01*
X113134091Y-66292517D01*
X113083796Y-66157669D01*
X113083795Y-66157668D01*
X113083793Y-66157664D01*
X112997547Y-66042455D01*
X112997544Y-66042452D01*
X112882335Y-65956206D01*
X112882328Y-65956202D01*
X112747482Y-65905908D01*
X112747483Y-65905908D01*
X112687883Y-65899501D01*
X112687881Y-65899500D01*
X112687873Y-65899500D01*
X112687864Y-65899500D01*
X110892129Y-65899500D01*
X110892123Y-65899501D01*
X110832516Y-65905908D01*
X110697671Y-65956202D01*
X110697664Y-65956206D01*
X110582455Y-66042452D01*
X110582452Y-66042455D01*
X110496206Y-66157664D01*
X110496202Y-66157671D01*
X110445908Y-66292517D01*
X110439501Y-66352116D01*
X110439501Y-66352123D01*
X110439500Y-66352135D01*
X110439500Y-66362690D01*
X110419815Y-66429729D01*
X110403181Y-66450371D01*
X109732962Y-67120590D01*
X109715925Y-67057007D01*
X109650099Y-66942993D01*
X109557007Y-66849901D01*
X109442993Y-66784075D01*
X109379409Y-66767037D01*
X110011716Y-66134728D01*
X109957550Y-66095375D01*
X109768217Y-65998904D01*
X109566129Y-65933242D01*
X109356246Y-65900000D01*
X109143754Y-65900000D01*
X108933872Y-65933242D01*
X108933869Y-65933242D01*
X108731782Y-65998904D01*
X108542439Y-66095380D01*
X108488282Y-66134727D01*
X108488282Y-66134728D01*
X109120591Y-66767037D01*
X109057007Y-66784075D01*
X108942993Y-66849901D01*
X108849901Y-66942993D01*
X108784075Y-67057007D01*
X108767037Y-67120591D01*
X108134728Y-66488282D01*
X108134727Y-66488282D01*
X108095380Y-66542439D01*
X107998904Y-66731782D01*
X107933242Y-66933869D01*
X107933242Y-66933872D01*
X107900000Y-67143753D01*
X104300500Y-67143753D01*
X104300500Y-61578711D01*
X106149500Y-61578711D01*
X106149500Y-61821288D01*
X106181161Y-62061785D01*
X106243947Y-62296104D01*
X106285367Y-62396100D01*
X106336776Y-62520212D01*
X106458064Y-62730289D01*
X106458066Y-62730292D01*
X106458067Y-62730293D01*
X106605733Y-62922736D01*
X106605739Y-62922743D01*
X106777256Y-63094260D01*
X106777262Y-63094265D01*
X106969711Y-63241936D01*
X107179788Y-63363224D01*
X107403900Y-63456054D01*
X107638211Y-63518838D01*
X107818586Y-63542584D01*
X107878711Y-63550500D01*
X107878712Y-63550500D01*
X108121289Y-63550500D01*
X108169388Y-63544167D01*
X108361789Y-63518838D01*
X108596100Y-63456054D01*
X108820212Y-63363224D01*
X109030289Y-63241936D01*
X109222738Y-63094265D01*
X109394265Y-62922738D01*
X109541936Y-62730289D01*
X109663224Y-62520212D01*
X109756054Y-62296100D01*
X109818838Y-62061789D01*
X109850500Y-61821288D01*
X109850500Y-61678711D01*
X130149500Y-61678711D01*
X130149500Y-61921288D01*
X130181161Y-62161785D01*
X130243947Y-62396104D01*
X130336773Y-62620205D01*
X130336776Y-62620212D01*
X130458064Y-62830289D01*
X130458066Y-62830292D01*
X130458067Y-62830293D01*
X130605733Y-63022736D01*
X130605739Y-63022743D01*
X130777256Y-63194260D01*
X130777262Y-63194265D01*
X130969711Y-63341936D01*
X131179788Y-63463224D01*
X131403900Y-63556054D01*
X131638211Y-63618838D01*
X131818586Y-63642584D01*
X131878711Y-63650500D01*
X131878712Y-63650500D01*
X132121289Y-63650500D01*
X132169388Y-63644167D01*
X132361789Y-63618838D01*
X132596100Y-63556054D01*
X132820212Y-63463224D01*
X133030289Y-63341936D01*
X133222738Y-63194265D01*
X133394265Y-63022738D01*
X133541936Y-62830289D01*
X133663224Y-62620212D01*
X133756054Y-62396100D01*
X133818838Y-62161789D01*
X133850500Y-61921288D01*
X133850500Y-61678712D01*
X133818838Y-61438211D01*
X133756054Y-61203900D01*
X133663224Y-60979788D01*
X133541936Y-60769711D01*
X133481018Y-60690321D01*
X133394266Y-60577263D01*
X133394260Y-60577256D01*
X133222743Y-60405739D01*
X133222736Y-60405733D01*
X133030293Y-60258067D01*
X133030292Y-60258066D01*
X133030289Y-60258064D01*
X132820212Y-60136776D01*
X132820205Y-60136773D01*
X132596104Y-60043947D01*
X132361785Y-59981161D01*
X132121289Y-59949500D01*
X132121288Y-59949500D01*
X131878712Y-59949500D01*
X131878711Y-59949500D01*
X131638214Y-59981161D01*
X131403895Y-60043947D01*
X131179794Y-60136773D01*
X131179785Y-60136777D01*
X130969706Y-60258067D01*
X130777263Y-60405733D01*
X130777256Y-60405739D01*
X130605739Y-60577256D01*
X130605733Y-60577263D01*
X130458067Y-60769706D01*
X130336777Y-60979785D01*
X130336773Y-60979794D01*
X130243947Y-61203895D01*
X130181161Y-61438214D01*
X130149500Y-61678711D01*
X109850500Y-61678711D01*
X109850500Y-61578712D01*
X109818838Y-61338211D01*
X109756054Y-61103900D01*
X109663224Y-60879788D01*
X109541936Y-60669711D01*
X109394265Y-60477262D01*
X109394260Y-60477256D01*
X109222743Y-60305739D01*
X109222736Y-60305733D01*
X109030293Y-60158067D01*
X109030292Y-60158066D01*
X109030289Y-60158064D01*
X108820212Y-60036776D01*
X108820205Y-60036773D01*
X108596104Y-59943947D01*
X108361785Y-59881161D01*
X108121289Y-59849500D01*
X108121288Y-59849500D01*
X107878712Y-59849500D01*
X107878711Y-59849500D01*
X107638214Y-59881161D01*
X107403895Y-59943947D01*
X107179794Y-60036773D01*
X107179785Y-60036777D01*
X106969706Y-60158067D01*
X106777263Y-60305733D01*
X106777256Y-60305739D01*
X106605739Y-60477256D01*
X106605733Y-60477263D01*
X106458067Y-60669706D01*
X106336777Y-60879785D01*
X106336773Y-60879794D01*
X106243947Y-61103895D01*
X106181161Y-61338214D01*
X106149500Y-61578711D01*
X104300500Y-61578711D01*
X104300500Y-60403750D01*
X104300726Y-60396263D01*
X104318271Y-60106205D01*
X104320076Y-60091340D01*
X104328762Y-60043946D01*
X104371780Y-59809198D01*
X104375364Y-59794664D01*
X104460699Y-59520812D01*
X104465997Y-59506842D01*
X104583727Y-59245258D01*
X104590680Y-59232012D01*
X104630959Y-59165381D01*
X104739075Y-58986534D01*
X104747567Y-58974230D01*
X104924481Y-58748417D01*
X104934396Y-58737226D01*
X105137226Y-58534396D01*
X105148417Y-58524481D01*
X105374230Y-58347567D01*
X105386534Y-58339075D01*
X105632012Y-58190680D01*
X105645258Y-58183727D01*
X105906842Y-58065997D01*
X105920812Y-58060699D01*
X106194668Y-57975362D01*
X106209198Y-57971780D01*
X106491344Y-57920075D01*
X106506201Y-57918271D01*
X106796264Y-57900726D01*
X106803751Y-57900500D01*
X106865892Y-57900500D01*
X132934108Y-57900500D01*
X132996249Y-57900500D01*
X133003736Y-57900726D01*
G37*
%TD.AperFunction*%
%TD*%
M02*
