%TF.GenerationSoftware,KiCad,Pcbnew,10.0.4*%
%TF.CreationDate,2026-07-23T16:09:29-04:00*%
%TF.ProjectId,adapter_board,61646170-7465-4725-9f62-6f6172642e6b,rev?*%
%TF.SameCoordinates,Original*%
%TF.FileFunction,Legend,Bot*%
%TF.FilePolarity,Positive*%
%FSLAX46Y46*%
G04 Gerber Fmt 4.6, Leading zero omitted, Abs format (unit mm)*
G04 Created by KiCad (PCBNEW 10.0.4) date 2026-07-23 16:09:29*
%MOMM*%
%LPD*%
G01*
G04 APERTURE LIST*
%ADD10C,0.100000*%
G04 APERTURE END LIST*
D10*
X132922306Y-86872419D02*
X133493734Y-86872419D01*
X133208020Y-86872419D02*
X133208020Y-85872419D01*
X133208020Y-85872419D02*
X133303258Y-86015276D01*
X133303258Y-86015276D02*
X133398496Y-86110514D01*
X133398496Y-86110514D02*
X133493734Y-86158133D01*
X133172306Y-97122419D02*
X133743734Y-97122419D01*
X133458020Y-97122419D02*
X133458020Y-96122419D01*
X133458020Y-96122419D02*
X133553258Y-96265276D01*
X133553258Y-96265276D02*
X133648496Y-96360514D01*
X133648496Y-96360514D02*
X133743734Y-96408133D01*
X132791353Y-96217657D02*
X132743734Y-96170038D01*
X132743734Y-96170038D02*
X132648496Y-96122419D01*
X132648496Y-96122419D02*
X132410401Y-96122419D01*
X132410401Y-96122419D02*
X132315163Y-96170038D01*
X132315163Y-96170038D02*
X132267544Y-96217657D01*
X132267544Y-96217657D02*
X132219925Y-96312895D01*
X132219925Y-96312895D02*
X132219925Y-96408133D01*
X132219925Y-96408133D02*
X132267544Y-96550990D01*
X132267544Y-96550990D02*
X132838972Y-97122419D01*
X132838972Y-97122419D02*
X132219925Y-97122419D01*
M02*
