%TF.GenerationSoftware,KiCad,Pcbnew,10.0.4*%
%TF.CreationDate,2026-07-23T16:09:29-04:00*%
%TF.ProjectId,adapter_board,61646170-7465-4725-9f62-6f6172642e6b,rev?*%
%TF.SameCoordinates,Original*%
%TF.FileFunction,Copper,L1,Top*%
%TF.FilePolarity,Positive*%
%FSLAX46Y46*%
G04 Gerber Fmt 4.6, Leading zero omitted, Abs format (unit mm)*
G04 Created by KiCad (PCBNEW 10.0.4) date 2026-07-23 16:09:29*
%MOMM*%
%LPD*%
G01*
G04 APERTURE LIST*
%TA.AperFunction,SMDPad,CuDef*%
%ADD10R,1.300000X0.300000*%
%TD*%
%TA.AperFunction,SMDPad,CuDef*%
%ADD11R,2.200000X1.800000*%
%TD*%
%TA.AperFunction,ViaPad*%
%ADD12C,0.600000*%
%TD*%
%TA.AperFunction,Conductor*%
%ADD13C,0.200000*%
%TD*%
G04 APERTURE END LIST*
D10*
%TO.P,0.5mm,1,Pin_1_1*%
%TO.N,Net-(0.5mm1-Pin_1)*%
X145250000Y-88750000D03*
%TO.P,0.5mm,2,Pin_2_2*%
%TO.N,Net-(0.5mm1-Pin_2)*%
X145250000Y-89250000D03*
%TO.P,0.5mm,3,Pin_3_3*%
%TO.N,Net-(0.5mm1-Pin_3)*%
X145250000Y-89750000D03*
%TO.P,0.5mm,4,Pin_4_4*%
%TO.N,Net-(0.5mm1-Pin_4)*%
X145250000Y-90250000D03*
%TO.P,0.5mm,5,Pin_5_5*%
%TO.N,Net-(0.5mm1-Pin_5)*%
X145250000Y-90750000D03*
%TO.P,0.5mm,6,Pin_6_6*%
%TO.N,Net-(0.5mm1-Pin_6)*%
X145250000Y-91250000D03*
%TO.P,0.5mm,7,Pin_7_7*%
%TO.N,Net-(0.5mm1-Pin_7)*%
X145250000Y-91750000D03*
%TO.P,0.5mm,8,Pin_8_8*%
%TO.N,Net-(0.5mm1-Pin_8)*%
X145250000Y-92250000D03*
%TO.P,0.5mm,9,Pin_9_9*%
%TO.N,Net-(0.5mm1-Pin_9)*%
X145250000Y-92750000D03*
%TO.P,0.5mm,10,Pin_10_10*%
%TO.N,Net-(0.5mm1-Pin_10)*%
X145250000Y-93250000D03*
%TO.P,0.5mm,11,Pin_11_11*%
%TO.N,Net-(0.5mm1-Pin_11)*%
X145250000Y-93750000D03*
%TO.P,0.5mm,12,Pin_12_12*%
%TO.N,Net-(0.5mm1-Pin_12)*%
X145250000Y-94250000D03*
D11*
%TO.P,0.5mm,MP*%
%TO.N,N/C*%
X142000000Y-86850000D03*
X142000000Y-96150000D03*
%TD*%
D12*
%TO.N,Net-(0.5mm1-Pin_1)*%
X136000000Y-87750000D03*
%TO.N,Net-(0.5mm1-Pin_5)*%
X134000000Y-90600000D03*
%TO.N,Net-(0.5mm1-Pin_7)*%
X135000000Y-92000000D03*
%TO.N,Net-(0.5mm1-Pin_2)*%
X135500000Y-88500000D03*
%TO.N,Net-(0.5mm1-Pin_11)*%
X134000000Y-94800000D03*
%TO.N,Net-(0.5mm1-Pin_12)*%
X133500000Y-95500000D03*
%TO.N,Net-(0.5mm1-Pin_6)*%
X134500000Y-91300000D03*
%TO.N,Net-(0.5mm1-Pin_3)*%
X135000000Y-89200000D03*
%TO.N,Net-(0.5mm1-Pin_10)*%
X134500000Y-94100000D03*
%TO.N,Net-(0.5mm1-Pin_8)*%
X135500000Y-92700000D03*
%TO.N,Net-(0.5mm1-Pin_4)*%
X134500000Y-89900000D03*
%TO.N,Net-(0.5mm1-Pin_9)*%
X134987851Y-93385421D03*
%TD*%
%TO.N,Net-(0.5mm1-Pin_1)*%
D13*
X145250000Y-88750000D02*
X137000000Y-88750000D01*
X136000000Y-87750000D02*
X135750000Y-87750000D01*
X137000000Y-88750000D02*
X136000000Y-87750000D01*
%TO.N,Net-(0.5mm1-Pin_5)*%
X134000000Y-90600000D02*
X134600000Y-90600000D01*
X134600000Y-90600000D02*
X134750000Y-90750000D01*
X134750000Y-90750000D02*
X145250000Y-90750000D01*
%TO.N,Net-(0.5mm1-Pin_7)*%
X135750000Y-91750000D02*
X145250000Y-91750000D01*
X135500000Y-92000000D02*
X135750000Y-91750000D01*
X135000000Y-92000000D02*
X135500000Y-92000000D01*
%TO.N,Net-(0.5mm1-Pin_2)*%
X136488068Y-89250000D02*
X145250000Y-89250000D01*
X135738068Y-88500000D02*
X136488068Y-89250000D01*
X135500000Y-88500000D02*
X135738068Y-88500000D01*
%TO.N,Net-(0.5mm1-Pin_11)*%
X136023966Y-94750000D02*
X137023966Y-93750000D01*
X137023966Y-93750000D02*
X145250000Y-93750000D01*
X134000000Y-94800000D02*
X134050000Y-94750000D01*
X134050000Y-94750000D02*
X136023966Y-94750000D01*
%TO.N,Net-(0.5mm1-Pin_12)*%
X133500000Y-95500000D02*
X135839652Y-95500000D01*
X135839652Y-95500000D02*
X137089652Y-94250000D01*
X137089652Y-94250000D02*
X145250000Y-94250000D01*
%TO.N,Net-(0.5mm1-Pin_6)*%
X134500000Y-91300000D02*
X135068329Y-91300000D01*
X135118329Y-91250000D02*
X145250000Y-91250000D01*
X135068329Y-91300000D02*
X135118329Y-91250000D01*
%TO.N,Net-(0.5mm1-Pin_3)*%
X135426136Y-89200000D02*
X135976136Y-89750000D01*
X135000000Y-89200000D02*
X135426136Y-89200000D01*
X135976136Y-89750000D02*
X145250000Y-89750000D01*
%TO.N,Net-(0.5mm1-Pin_10)*%
X136958280Y-93250000D02*
X145250000Y-93250000D01*
X134600000Y-94000000D02*
X136208280Y-94000000D01*
X136208280Y-94000000D02*
X136958280Y-93250000D01*
X134500000Y-94100000D02*
X134600000Y-94000000D01*
%TO.N,Net-(0.5mm1-Pin_8)*%
X135931374Y-92700000D02*
X136381374Y-92250000D01*
X136381374Y-92250000D02*
X145250000Y-92250000D01*
X135500000Y-92700000D02*
X135931374Y-92700000D01*
%TO.N,Net-(0.5mm1-Pin_4)*%
X134500000Y-89900000D02*
X135114204Y-89900000D01*
X135464204Y-90250000D02*
X145250000Y-90250000D01*
X135114204Y-89900000D02*
X135464204Y-90250000D01*
%TO.N,Net-(0.5mm1-Pin_9)*%
X136729903Y-92750000D02*
X145250000Y-92750000D01*
X136117166Y-93362737D02*
X136729903Y-92750000D01*
X135010535Y-93362737D02*
X136117166Y-93362737D01*
X134987851Y-93385421D02*
X135010535Y-93362737D01*
%TD*%
M02*
