%TF.GenerationSoftware,KiCad,Pcbnew,10.0.4*%
%TF.CreationDate,2026-07-23T16:09:29-04:00*%
%TF.ProjectId,adapter_board,61646170-7465-4725-9f62-6f6172642e6b,rev?*%
%TF.SameCoordinates,Original*%
%TF.FileFunction,Copper,L2,Bot*%
%TF.FilePolarity,Positive*%
%FSLAX46Y46*%
G04 Gerber Fmt 4.6, Leading zero omitted, Abs format (unit mm)*
G04 Created by KiCad (PCBNEW 10.0.4) date 2026-07-23 16:09:29*
%MOMM*%
%LPD*%
G01*
G04 APERTURE LIST*
%TA.AperFunction,ConnectorPad*%
%ADD10R,1.400000X0.400000*%
%TD*%
%TA.AperFunction,ViaPad*%
%ADD11C,0.600000*%
%TD*%
%TA.AperFunction,Conductor*%
%ADD12C,0.200000*%
%TD*%
G04 APERTURE END LIST*
D10*
%TO.P,0.7mm,1,Pin_1_1*%
%TO.N,Net-(0.5mm1-Pin_1)*%
X132000000Y-87800000D03*
%TO.P,0.7mm,2,Pin_2_2*%
%TO.N,Net-(0.5mm1-Pin_2)*%
X132000000Y-88500000D03*
%TO.P,0.7mm,3,Pin_3_3*%
%TO.N,Net-(0.5mm1-Pin_3)*%
X132000000Y-89200000D03*
%TO.P,0.7mm,4,Pin_4_4*%
%TO.N,Net-(0.5mm1-Pin_4)*%
X132000000Y-89900000D03*
%TO.P,0.7mm,5,Pin_5_5*%
%TO.N,Net-(0.5mm1-Pin_5)*%
X132000000Y-90600000D03*
%TO.P,0.7mm,6,Pin_6_6*%
%TO.N,Net-(0.5mm1-Pin_6)*%
X132000000Y-91300000D03*
%TO.P,0.7mm,7,Pin_7_7*%
%TO.N,Net-(0.5mm1-Pin_7)*%
X132000000Y-92000000D03*
%TO.P,0.7mm,8,Pin_8_8*%
%TO.N,Net-(0.5mm1-Pin_8)*%
X132000000Y-92700000D03*
%TO.P,0.7mm,9,Pin_9_9*%
%TO.N,Net-(0.5mm1-Pin_9)*%
X132000000Y-93400000D03*
%TO.P,0.7mm,10,Pin_10_10*%
%TO.N,Net-(0.5mm1-Pin_10)*%
X132000000Y-94100000D03*
%TO.P,0.7mm,11,Pin_11_11*%
%TO.N,Net-(0.5mm1-Pin_11)*%
X132000000Y-94800000D03*
%TO.P,0.7mm,12,Pin_12_12*%
%TO.N,Net-(0.5mm1-Pin_12)*%
X132000000Y-95500000D03*
%TD*%
D11*
%TO.N,Net-(0.5mm1-Pin_1)*%
X136000000Y-87750000D03*
%TO.N,Net-(0.5mm1-Pin_5)*%
X134000000Y-90600000D03*
%TO.N,Net-(0.5mm1-Pin_7)*%
X135000000Y-92000000D03*
%TO.N,Net-(0.5mm1-Pin_2)*%
X135500000Y-88500000D03*
%TO.N,Net-(0.5mm1-Pin_11)*%
X134000000Y-94800000D03*
%TO.N,Net-(0.5mm1-Pin_12)*%
X133500000Y-95500000D03*
%TO.N,Net-(0.5mm1-Pin_6)*%
X134500000Y-91300000D03*
%TO.N,Net-(0.5mm1-Pin_3)*%
X135000000Y-89200000D03*
%TO.N,Net-(0.5mm1-Pin_10)*%
X134500000Y-94100000D03*
%TO.N,Net-(0.5mm1-Pin_8)*%
X135500000Y-92700000D03*
%TO.N,Net-(0.5mm1-Pin_4)*%
X134500000Y-89900000D03*
%TO.N,Net-(0.5mm1-Pin_9)*%
X134987851Y-93385421D03*
%TD*%
%TO.N,Net-(0.5mm1-Pin_1)*%
D12*
X135750000Y-87750000D02*
X135700000Y-87800000D01*
X136000000Y-87750000D02*
X135750000Y-87750000D01*
X135700000Y-87800000D02*
X132000000Y-87800000D01*
%TO.N,Net-(0.5mm1-Pin_5)*%
X134000000Y-90600000D02*
X132000000Y-90600000D01*
%TO.N,Net-(0.5mm1-Pin_7)*%
X135000000Y-92000000D02*
X132000000Y-92000000D01*
%TO.N,Net-(0.5mm1-Pin_2)*%
X135500000Y-88500000D02*
X132000000Y-88500000D01*
%TO.N,Net-(0.5mm1-Pin_11)*%
X134000000Y-94800000D02*
X132000000Y-94800000D01*
%TO.N,Net-(0.5mm1-Pin_12)*%
X133500000Y-95500000D02*
X132000000Y-95500000D01*
%TO.N,Net-(0.5mm1-Pin_6)*%
X134500000Y-91300000D02*
X132000000Y-91300000D01*
%TO.N,Net-(0.5mm1-Pin_3)*%
X135000000Y-89200000D02*
X132000000Y-89200000D01*
%TO.N,Net-(0.5mm1-Pin_10)*%
X134500000Y-94100000D02*
X132000000Y-94100000D01*
%TO.N,Net-(0.5mm1-Pin_8)*%
X135500000Y-92700000D02*
X132000000Y-92700000D01*
%TO.N,Net-(0.5mm1-Pin_4)*%
X134500000Y-89900000D02*
X132000000Y-89900000D01*
%TO.N,Net-(0.5mm1-Pin_9)*%
X134973272Y-93400000D02*
X132000000Y-93400000D01*
X134987851Y-93385421D02*
X134973272Y-93400000D01*
%TD*%
M02*
